<svg width="162" height="56" viewBox="0 0 162 56" fill="none" xmlns="http://www.w3.org/2000/svg">
    <path
        d="M10.3625 38.5902L9.4359 41.5059C9.85244 41.5059 10.2605 41.4634 10.728 41.4634C17.2226 41.4634 21.4986 44.3792 21.4986 48.4681C21.4986 52.557 17.2226 55.2518 10.728 55.2518C4.2334 55.2518 0 52.557 0 48.4681C0 45.3228 2.52474 42.9001 6.54563 41.9565L7.72724 38.2756C3.34932 37.2895 0.510049 34.0082 0.510049 29.4773C0.510049 24.0028 4.63294 20.0924 10.711 20.0924C11.7906 20.0924 12.8277 20.2284 13.7543 20.4494L16.6446 16.9131H19.3734L16.126 21.2995C19.1183 22.8722 20.9715 25.8389 20.9715 29.4688C20.9715 35.1728 16.7976 38.5817 10.354 38.5817L10.3625 38.5902ZM10.3625 44.4727C10.0055 44.4727 9.58892 44.5152 9.18088 44.6087C6.80915 45.2803 6.13759 47.346 6.91116 49.3692C7.58273 51.0779 9.18088 52.285 11.0851 52.285C11.5016 52.285 11.9606 52.2425 12.3772 52.1065C14.7489 51.4349 15.4205 49.4117 14.6469 47.4395C13.9243 45.6883 12.2752 44.4727 10.371 44.4727H10.3625ZM8.60282 23.2802C6.43512 23.8668 6.2821 26.9185 7.42121 30.2849C8.55182 33.6512 10.6685 35.9464 12.8362 35.4024C15.0549 34.8158 15.259 31.8065 14.1284 28.5337C12.9467 25.2099 10.83 22.7446 8.61132 23.2802H8.60282Z"
        fill="#2B2921" />
    <path
        d="M31.4959 46.4449C25.3158 46.4449 21.1334 41.1914 21.1334 33.4642C21.1334 25.7369 25.3073 20.0839 31.4959 20.0839C37.6845 20.0839 41.8584 25.6944 41.8584 33.4642C41.8584 41.2339 37.7865 46.4449 31.4959 46.4449ZM28.9202 23.4077C26.6505 23.8158 26.1914 28.4402 27.6875 34.1868C29.2347 39.9758 31.7084 43.6142 34.0802 43.1211C36.3499 42.6706 36.8599 38.3607 35.3723 32.6141C33.7741 26.774 31.3004 22.9147 28.9287 23.4077H28.9202Z"
        fill="#2B2921" />
    <path
        d="M52.4676 46.4449C46.2875 46.4449 42.1051 41.1914 42.1051 33.4642C42.1051 25.7369 46.279 20.0839 52.4676 20.0839C58.6562 20.0839 62.8301 25.6944 62.8301 33.4642C62.8301 41.2339 58.7582 46.4449 52.4676 46.4449ZM49.8918 23.4077C47.6221 23.8158 47.1631 28.4402 48.6592 34.1868C50.2064 39.9758 52.6801 43.6142 55.0518 43.1211C57.3216 42.6706 57.8316 38.3607 56.344 32.6141C54.7458 26.774 52.2721 22.9147 49.9003 23.4077H49.8918Z"
        fill="#2B2921" />
    <path
        d="M83.452 11.6001V45.9944H78.6066L77.986 43.3931C76.7449 45.4588 74.8917 46.4449 72.316 46.4449C66.5949 46.4449 63.1946 41.3699 63.1946 33.1496C63.1946 24.9293 66.5949 19.9479 72.316 19.9479C74.2711 19.9479 75.7673 20.5344 76.9064 21.835V11.6001H83.452ZM73.8121 43.7501C75.7673 43.7501 76.6939 41.1489 76.9064 36.9665V29.3328C76.7024 25.2014 75.7758 22.6001 73.8121 22.6001C71.2364 22.6001 69.7912 26.825 69.7912 33.1496C69.7912 39.4742 71.2364 43.7501 73.8121 43.7501Z"
        fill="#2B2921" />
    <path
        d="M95.0481 20.492H102.877V22.6512H95.3541V46.0029H88.4005V22.6512H83.0959V20.492H89.6926C87.1168 20.1774 84.3881 18.4263 84.3881 15.689C84.3881 12.3652 88.2559 10.1635 94.13 10.0785C96.7568 10.036 99.1795 10.4865 100.88 11.3366L98.6609 16.4116C96.3912 14.6604 93.6115 13.2238 91.9113 13.2238C91.4948 13.2238 91.1377 13.3173 90.8827 13.4958C89.3866 14.4819 91.4012 18.3923 95.0566 20.5005L95.0481 20.492Z"
        fill="#2B2921" />
    <path
        d="M110.051 46.4449C103.871 46.4449 99.6887 41.1914 99.6887 33.4642C99.6887 25.7369 103.863 20.0839 110.051 20.0839C116.24 20.0839 120.414 25.6944 120.414 33.4642C120.414 41.2339 116.342 46.4449 110.051 46.4449ZM107.467 23.4077C105.197 23.8158 104.738 28.4402 106.234 34.1868C107.781 39.9758 110.255 43.6142 112.627 43.1211C114.897 42.6706 115.407 38.3607 113.919 32.6141C112.321 26.774 109.847 22.9147 107.475 23.4077H107.467Z"
        fill="#2B2921" />
    <path
        d="M131.014 46.4449C124.834 46.4449 120.651 41.1914 120.651 33.4642C120.651 25.7369 124.825 20.0839 131.014 20.0839C137.202 20.0839 141.376 25.6944 141.376 33.4642C141.376 41.2339 137.304 46.4449 131.014 46.4449ZM128.438 23.4077C126.168 23.8158 125.709 28.4402 127.205 34.1868C128.753 39.9758 131.226 43.6142 133.598 43.1211C135.868 42.6706 136.378 38.3607 134.89 32.6141C133.292 26.774 130.818 22.9147 128.447 23.4077H128.438Z"
        fill="#2B2921" />
    <path
        d="M161.999 11.6001V45.9944H157.154L156.533 43.3931C155.292 45.4588 153.439 46.4449 150.863 46.4449C145.142 46.4449 141.742 41.3699 141.742 33.1496C141.742 24.9293 145.142 19.9479 150.863 19.9479C152.818 19.9479 154.315 20.5344 155.454 21.835V11.6001H161.999ZM152.359 43.7501C154.315 43.7501 155.241 41.1489 155.454 36.9665V29.3328C155.25 25.2014 154.323 22.6001 152.359 22.6001C149.784 22.6001 148.339 26.825 148.339 33.1496C148.339 39.4742 149.784 43.7501 152.359 43.7501Z"
        fill="#2B2921" />
    <path
        d="M8.80684 10.8385V3.96131C8.80684 2.71169 8.30529 2.20164 7.53172 2.20164H6.80915V10.8385H4.40342V2.20164H3.68085C2.90728 2.20164 2.40573 2.71169 2.40573 3.96131V10.8385H0V3.8593C0 1.7171 0.977594 0.739502 3.1793 0.739502H8.02477C10.235 0.739502 11.2126 1.7171 11.2126 3.8593V10.8385H8.80684Z"
        fill="#2B2921" />
    <path d="M16.9513 0.739502V10.8385H14.6136V0.739502H16.9513Z" fill="#2B2921" />
    <path
        d="M20.0618 7.48063H22.5185V7.68465C22.5185 8.74725 23.0626 9.60584 24.0401 9.60584C24.7712 9.60584 25.3068 9.13829 25.3068 8.37322C25.3068 6.04399 20.2403 7.35312 20.2403 3.62126C20.2488 1.73408 21.6514 0.577972 23.8021 0.577972C26.1313 0.577972 27.619 1.9381 27.619 4.07181H25.1963V3.91879C25.1963 2.70318 24.6182 1.97211 23.7171 1.97211C23.0116 1.97211 22.544 2.42265 22.544 3.14522C22.544 5.52545 27.67 4.14831 27.67 7.91417C27.67 9.83536 26.2079 11 23.9976 11C21.6004 11 20.0703 9.63134 20.0703 7.48063H20.0618Z"
        fill="#2B2921" />
    <path
        d="M30.629 7.48063H33.0858V7.68465C33.0858 8.74725 33.6298 9.60584 34.6074 9.60584C35.3385 9.60584 35.874 9.13829 35.874 8.37322C35.874 6.04399 30.8075 7.35312 30.8075 3.62126C30.816 1.73408 32.2187 0.577972 34.3694 0.577972C36.6986 0.577972 38.1863 1.9381 38.1863 4.07181H35.7635V3.91879C35.7635 2.70318 35.1855 1.97211 34.2844 1.97211C33.5788 1.97211 33.1113 2.42265 33.1113 3.14522C33.1113 5.52545 38.2373 4.14831 38.2373 7.91417C38.2373 9.83536 36.7751 11 34.5649 11C32.1677 11 30.6375 9.63134 30.6375 7.48063H30.629Z"
        fill="#2B2921" />
    <path d="M43.7119 0.739502V10.8385H41.3741V0.739502H43.7119Z" fill="#2B2921" />
    <path
        d="M47.0267 7.19159V4.39482C47.0267 1.91259 48.5484 0.569458 50.8011 0.569458C53.0538 0.569458 54.5755 1.92109 54.5755 4.39482V7.19159C54.5755 9.67383 53.0538 11.0255 50.8011 11.0255C48.5484 11.0255 47.0267 9.67383 47.0267 7.19159ZM50.8011 9.56332C51.6257 9.56332 52.1697 8.84075 52.1697 7.59963V3.97828C52.1697 2.72866 51.6172 2.0316 50.8011 2.0316C49.985 2.0316 49.4325 2.72866 49.4325 3.97828V7.59963C49.4325 8.84925 49.985 9.56332 50.8011 9.56332Z"
        fill="#2B2921" />
    <path
        d="M63.0071 10.8385V4.13983C63.0071 2.88171 62.5056 2.19314 61.732 2.20164H60.2954V10.8385H57.8896V0.739502H62.2251C64.4353 0.739502 65.4044 2.01462 65.4044 4.15683V10.8385H62.9986H63.0071Z"
        fill="#2B2921" />
</svg>
