<svg width="118" height="21" viewBox="0 0 118 21" fill="none" xmlns="http://www.w3.org/2000/svg">
<path fill-rule="evenodd" clip-rule="evenodd" d="M21.6109 15.1792H18.8908L16.851 7.16859C16.7542 6.8001 16.5486 6.47434 16.2463 6.3208C15.4916 5.93495 14.6601 5.62788 13.7529 5.473V5.16459H18.1348C18.7396 5.16459 19.1932 5.62788 19.2688 6.16593L20.3271 11.9443L23.0459 5.16459H25.6904L21.6109 15.1792ZM27.2019 15.1792H24.633L26.7483 5.16459H29.3172L27.2019 15.1792ZM32.6418 7.93746C32.7174 7.39807 33.171 7.08966 33.7002 7.08966C34.5317 7.01223 35.4376 7.1671 36.1935 7.55161L36.6471 5.39541C35.8911 5.087 35.0596 4.93213 34.305 4.93213C31.8116 4.93213 29.9973 6.31931 29.9973 8.24453C29.9973 9.70915 31.2825 10.4782 32.1896 10.9415C33.171 11.4034 33.549 11.7118 33.4734 12.1738C33.4734 12.8667 32.7174 13.1751 31.9628 13.1751C31.0557 13.1751 30.1485 12.9441 29.3183 12.5583L28.8647 14.7158C29.7719 15.1003 30.7533 15.2552 31.6604 15.2552C34.4561 15.3313 36.1935 13.9454 36.1935 11.8653C36.1935 9.24586 32.6418 9.09233 32.6418 7.93746ZM45.1825 15.1792L43.1428 5.16459H40.9518C40.4983 5.16459 40.0447 5.473 39.8935 5.93495L36.1164 15.1792H38.7609L39.2887 13.716H42.538L42.8404 15.1792H45.1825ZM41.3301 7.86045L42.0848 11.6348H39.9694L41.3301 7.86045Z" fill="#172B85"/>
<path d="M91.8534 4.1638H84.948V16.5727H91.8534V4.1638Z" fill="#FF5F00"/>
<path d="M85.3865 10.3682C85.3854 9.17317 85.6562 7.99352 86.1784 6.91859C86.7006 5.84366 87.4606 4.90163 88.4007 4.16381C87.2365 3.24873 85.8383 2.67966 84.3659 2.52163C82.8936 2.36361 81.4065 2.623 80.0746 3.27018C78.7427 3.91735 77.6197 4.92619 76.8341 6.18138C76.0485 7.43657 75.6318 8.88746 75.6318 10.3682C75.6318 11.849 76.0485 13.2999 76.8341 14.5551C77.6197 15.8103 78.7427 16.8191 80.0746 17.4663C81.4065 18.1135 82.8936 18.3729 84.3659 18.2148C85.8383 18.0568 87.2365 17.4877 88.4007 16.5727C87.4606 15.8348 86.7007 14.8928 86.1784 13.8179C85.6562 12.7429 85.3854 11.5633 85.3865 10.3682Z" fill="#EB001B"/>
<path d="M101.169 10.3682C101.169 11.849 100.753 13.2999 99.9671 14.5551C99.1815 15.8103 98.0586 16.8191 96.7267 17.4663C95.3948 18.1135 93.9077 18.3729 92.4354 18.2148C90.9631 18.0568 89.5649 17.4877 88.4007 16.5727C89.34 15.8341 90.0994 14.8919 90.6215 13.8171C91.1436 12.7424 91.4149 11.5631 91.4149 10.3682C91.4149 9.17336 91.1436 7.99408 90.6215 6.91932C90.0994 5.84456 89.34 4.90238 88.4007 4.16381C89.5649 3.24873 90.9631 2.67965 92.4354 2.52163C93.9077 2.36361 95.3948 2.62301 96.7267 3.27019C98.0586 3.91737 99.1815 4.92621 99.9671 6.1814C100.753 7.43659 101.169 8.88748 101.169 10.3682Z" fill="#F79E1B"/>
</svg>
