<svg width="90" height="30" viewBox="0 0 90 30" fill="none" xmlns="http://www.w3.org/2000/svg">
<path d="M36.9058 13.6122C36.7363 14.883 35.7198 14.883 34.7879 14.883H34.2796L34.7032 12.4262C34.7032 12.2568 34.8726 12.1721 35.042 12.1721H35.2962C35.9739 12.1721 36.5669 12.1721 36.9058 12.5109C36.9058 12.8498 36.9058 13.1887 36.9058 13.6122ZM36.4822 10.2236H32.8394C32.5853 10.2236 32.4159 10.3931 32.3312 10.6472L30.891 19.9659C30.891 20.1353 30.9757 20.3047 31.2299 20.3047H32.9242C33.1783 20.3047 33.3477 20.1353 33.4324 19.8811L33.856 17.3397C33.856 17.0856 34.1102 16.9161 34.3643 16.9161H35.5503C37.9223 16.9161 39.2778 15.7301 39.7014 13.4428C39.8708 12.4262 39.7014 11.6638 39.2778 11.0708C38.6001 10.5625 37.6682 10.2236 36.4822 10.2236Z" fill="#263577"/>
<path d="M44.8695 17.0002C44.7001 18.0168 43.9377 18.6945 42.9211 18.6945C42.4128 18.6945 41.9892 18.525 41.7351 18.1862C41.4809 17.8473 41.3962 17.4237 41.4809 17.0002C41.6503 15.9836 42.4128 15.3059 43.4294 15.3059C43.9377 15.3059 44.3612 15.4753 44.6154 15.8142C44.7848 16.0683 44.9542 16.4919 44.8695 17.0002ZM47.2416 13.6116H45.5473C45.3778 13.6116 45.2931 13.6963 45.2084 13.8657L45.1237 14.374L45.039 14.2046C44.7001 13.6963 43.853 13.4421 43.0058 13.4421C41.0574 13.4421 39.4478 14.8823 39.1089 16.9155C38.9395 17.932 39.1936 18.8639 39.7866 19.5416C40.2949 20.1346 41.0573 20.3888 41.9892 20.3888C43.5141 20.3888 44.3612 19.3722 44.3612 19.3722L44.2765 19.8805C44.2765 20.0499 44.3612 20.2193 44.6154 20.2193H46.1402C46.3944 20.2193 46.5638 20.0499 46.6485 19.7958L47.5804 13.8657C47.5804 13.781 47.4957 13.6116 47.2416 13.6116Z" fill="#263577"/>
<path d="M56.4756 13.6118H54.6966C54.5272 13.6118 54.3577 13.6965 54.273 13.866L51.901 17.424L50.8844 14.0354C50.7997 13.7812 50.6303 13.6965 50.3761 13.6965H48.6818C48.5124 13.6965 48.343 13.866 48.4277 14.1201L50.3761 19.7113L48.5971 22.2527C48.4277 22.4222 48.5971 22.761 48.8513 22.761H50.6303C50.7997 22.761 50.9691 22.6763 51.0539 22.5069L56.8145 14.1201C56.8992 13.866 56.7298 13.6118 56.4756 13.6118Z" fill="#263577"/>
<path d="M62.6591 13.6122C62.4896 14.883 61.473 14.883 60.5412 14.883H60.0329L60.4565 12.4262C60.4565 12.2568 60.6259 12.1721 60.7953 12.1721H61.0495C61.7272 12.1721 62.3202 12.1721 62.6591 12.5109C62.7438 12.8498 62.7438 13.1887 62.6591 13.6122ZM62.2355 10.2236H58.5927C58.3386 10.2236 58.1692 10.3931 58.0845 10.6472L56.6443 19.9659C56.6443 20.1353 56.729 20.3047 56.9832 20.3047H58.8469C59.0163 20.3047 59.1857 20.22 59.1857 19.9659L59.6093 17.3397C59.6093 17.0856 59.8635 16.9161 60.1176 16.9161H61.3036C63.6756 16.9161 65.0311 15.7301 65.4547 13.4428C65.6241 12.4262 65.4547 11.6638 65.0311 11.0708C64.4381 10.5625 63.5062 10.2236 62.2355 10.2236Z" fill="#2199D6"/>
<path d="M70.7068 17.0002C70.5374 18.0168 69.7749 18.6945 68.7584 18.6945C68.2501 18.6945 67.8265 18.525 67.5724 18.1862C67.3182 17.8473 67.2335 17.4237 67.3182 17.0002C67.4876 15.9836 68.2501 15.3059 69.2667 15.3059C69.7749 15.3059 70.1985 15.4753 70.4527 15.8142C70.6221 16.0683 70.7915 16.4919 70.7068 17.0002ZM73.0788 13.6116H71.3845C71.2151 13.6116 71.1304 13.6963 71.0456 13.8657L70.961 14.374L70.8762 14.2046C70.5374 13.6963 69.6902 13.4421 68.8431 13.4421C66.8946 13.4421 65.285 14.8823 64.9462 16.9155C64.7768 17.932 65.0309 18.8639 65.6239 19.5416C66.1322 20.1346 66.8946 20.3888 67.8265 20.3888C69.3514 20.3888 70.1985 19.3722 70.1985 19.3722L70.1138 19.8805C70.1138 20.0499 70.1985 20.2193 70.4527 20.2193H71.9775C72.2317 20.2193 72.4011 20.0499 72.4858 19.7958L73.4177 13.8657C73.4177 13.781 73.2483 13.6116 73.0788 13.6116Z" fill="#2199D6"/>
<path d="M75.1119 10.4778L73.587 19.9659C73.587 20.1353 73.6718 20.3047 73.9259 20.3047H75.4508C75.7049 20.3047 75.8744 20.1353 75.9591 19.8811L77.3992 10.5625C77.3992 10.3931 77.3145 10.2236 77.0604 10.2236H75.3661C75.2813 10.2236 75.1966 10.3931 75.1119 10.4778Z" fill="#2199D6"/>
<path d="M15.812 22.0837L16.0661 20.3047H15.4731H12.5081L14.5412 7.34326C14.5412 7.34326 14.5412 7.25854 14.6259 7.25854H14.7107H19.7088C21.3184 7.25854 22.5044 7.59741 23.0974 8.27513C23.3516 8.61399 23.521 8.95285 23.6057 9.29171C23.6904 9.71528 23.6904 10.1389 23.6057 10.7319V11.0707L23.8599 11.2402C24.114 11.3249 24.2835 11.4943 24.4529 11.6637C24.707 11.9179 24.8765 12.2567 24.8765 12.6803C24.9612 13.1039 24.9612 13.6122 24.7917 14.2052C24.6223 14.8829 24.4529 15.3912 24.1987 15.8995C23.9446 16.3231 23.6057 16.6619 23.2669 17.0008C22.928 17.2549 22.4197 17.4243 21.9961 17.5938C21.4878 17.6785 20.9796 17.7632 20.3866 17.7632H19.963C19.7088 17.7632 19.4547 17.8479 19.2006 18.0174C19.0311 18.1868 18.8617 18.4409 18.777 18.6951V18.8645L18.2687 21.999V22.0837V22.1684C18.2687 22.1684 18.2687 22.1684 18.184 22.1684H15.812V22.0837Z" fill="#263577"/>
<path d="M24.1981 10.7314C24.1981 10.8162 24.1981 10.9009 24.1133 10.9856C23.4356 14.3742 21.233 15.4755 18.3527 15.4755H16.9126C16.5737 15.4755 16.2348 15.7296 16.2348 16.0685L15.4724 20.8125L15.303 22.168C15.303 22.4221 15.4724 22.5916 15.6418 22.5916H18.268C18.6069 22.5916 18.861 22.3374 18.861 22.0833V21.9138L19.3693 18.8641V18.6947C19.454 18.3558 19.7082 18.1864 19.9623 18.1864H20.3859C22.9273 18.1864 24.8758 17.1698 25.3841 14.2048C25.6382 12.934 25.4688 11.9175 24.8758 11.2397C24.7064 11.0703 24.4522 10.9009 24.1981 10.7314Z" fill="#2199D6"/>
<path d="M23.5213 10.4778C23.4366 10.4778 23.3519 10.3931 23.1825 10.3931C23.0978 10.3931 22.9283 10.3083 22.8436 10.3083C22.42 10.2236 21.9965 10.2236 21.5729 10.2236H17.676C17.5913 10.2236 17.5066 10.2236 17.4218 10.3083C17.2524 10.3931 17.083 10.5625 17.083 10.7319L16.2358 15.9843V16.1537C16.3206 15.8148 16.5747 15.5607 16.9135 15.5607H18.3537C21.234 15.5607 23.4366 14.3747 24.1143 11.0708C24.1143 10.9861 24.1143 10.9014 24.199 10.8166C24.0296 10.7319 23.8602 10.6472 23.6908 10.5625C23.606 10.4778 23.5213 10.4778 23.5213 10.4778Z" fill="#252C5E"/>
<path d="M17.0825 10.7316C17.0825 10.5622 17.252 10.3927 17.4214 10.308C17.5061 10.308 17.5908 10.2233 17.6755 10.2233H21.5724C21.996 10.2233 22.5043 10.2233 22.8432 10.308C22.9279 10.308 23.0973 10.308 23.182 10.3927C23.2667 10.3927 23.3514 10.4775 23.5209 10.4775C23.6056 10.4775 23.6056 10.4775 23.6903 10.5622C23.8597 10.6469 24.0292 10.7316 24.1986 10.8163C24.368 9.5456 24.1986 8.69844 23.5209 7.93601C22.7584 7.08886 21.403 6.75 19.7087 6.75H14.7105C14.3717 6.75 14.0328 7.00414 14.0328 7.343L11.9996 20.3891C11.9996 20.6433 12.1691 20.8974 12.4232 20.8974H15.4729L16.2354 15.9839L17.0825 10.7316Z" fill="#263577"/>
</svg>
