<svg width="375" height="716" viewBox="0 0 375 716" fill="none" xmlns="http://www.w3.org/2000/svg">
<g clip-path="url(#clip0_4075_8685)">
<rect width="375" height="716" rx="24" fill="#15B68D"/>
<path d="M79.8581 372.524L78.4401 376.552C79.0775 376.552 79.702 376.493 80.4175 376.493C90.3564 376.493 96.9 380.521 96.9 386.17C96.9 391.818 90.3564 395.541 80.4175 395.541C70.4785 395.541 64 391.818 64 386.17C64 381.825 67.8637 378.478 74.017 377.174L75.8253 372.089C69.1256 370.727 64.7805 366.194 64.7805 359.935C64.7805 352.372 71.09 346.97 80.3915 346.97C82.0436 346.97 83.6307 347.158 85.0487 347.463L89.4718 342.578H93.6477L88.6783 348.638C93.2575 350.81 96.0935 354.909 96.0935 359.923C96.0935 367.803 89.706 372.512 79.8451 372.512L79.8581 372.524ZM79.8581 380.65C79.3117 380.65 78.6743 380.709 78.0498 380.838C74.4203 381.766 73.3926 384.62 74.5764 387.415C75.6041 389.775 78.0498 391.443 80.9639 391.443C81.6013 391.443 82.3038 391.384 82.9413 391.196C86.5708 390.268 87.5985 387.473 86.4147 384.749C85.3089 382.33 82.7851 380.65 79.8711 380.65H79.8581ZM77.1652 351.374C73.8479 352.184 73.6137 356.4 75.3569 361.05C77.0872 365.701 80.3264 368.872 83.6437 368.12C87.0391 367.31 87.3513 363.153 85.6211 358.631C83.8129 354.04 80.5736 350.634 77.1782 351.374H77.1652Z" fill="white"/>
<path d="M112.2 383.375C102.742 383.375 96.3418 376.117 96.3418 365.443C96.3418 354.768 102.729 346.958 112.2 346.958C121.671 346.958 128.058 354.709 128.058 365.443C128.058 376.176 121.827 383.375 112.2 383.375ZM108.258 351.55C104.785 352.114 104.082 358.502 106.372 366.441C108.739 374.438 112.525 379.464 116.155 378.783C119.628 378.161 120.409 372.207 118.132 364.268C115.686 356.201 111.901 350.869 108.271 351.55H108.258Z" fill="white"/>
<path d="M144.294 383.375C134.836 383.375 128.436 376.117 128.436 365.443C128.436 354.768 134.823 346.958 144.294 346.958C153.764 346.958 160.152 354.709 160.152 365.443C160.152 376.176 153.92 383.375 144.294 383.375ZM140.352 351.55C136.878 352.114 136.176 358.502 138.466 366.441C140.833 374.438 144.619 379.464 148.248 378.783C151.722 378.161 152.502 372.207 150.226 364.268C147.78 356.201 143.994 350.869 140.365 351.55H140.352Z" fill="white"/>
<path d="M191.709 335.238V382.752H184.294L183.344 379.159C181.445 382.013 178.609 383.375 174.667 383.375C165.912 383.375 160.709 376.364 160.709 365.008C160.709 353.652 165.912 346.771 174.667 346.771C177.659 346.771 179.949 347.581 181.692 349.378V335.238H191.709ZM176.957 379.652C179.949 379.652 181.367 376.059 181.692 370.281V359.735C181.38 354.028 179.962 350.434 176.957 350.434C173.015 350.434 170.804 356.271 170.804 365.008C170.804 373.745 173.015 379.652 176.957 379.652Z" fill="white"/>
<path d="M209.455 347.522H221.436V350.505H209.923V382.764H199.282V350.505H191.164V347.522H201.259C197.318 347.088 193.142 344.668 193.142 340.887C193.142 336.295 199.061 333.254 208.05 333.136C212.07 333.078 215.778 333.7 218.379 334.874L214.984 341.885C211.511 339.466 207.257 337.481 204.655 337.481C204.017 337.481 203.471 337.611 203.081 337.857C200.791 339.219 203.874 344.621 209.468 347.534L209.455 347.522Z" fill="white"/>
<path d="M232.415 383.375C222.957 383.375 216.557 376.117 216.557 365.443C216.557 354.768 222.944 346.958 232.415 346.958C241.886 346.958 248.273 354.709 248.273 365.443C248.273 376.176 242.042 383.375 232.415 383.375ZM228.46 351.55C224.987 352.114 224.284 358.502 226.574 366.441C228.942 374.438 232.727 379.464 236.357 378.783C239.83 378.161 240.611 372.207 238.334 364.268C235.888 356.201 232.103 350.869 228.473 351.55H228.46Z" fill="white"/>
<path d="M264.495 383.375C255.038 383.375 248.637 376.117 248.637 365.443C248.637 354.768 255.025 346.958 264.495 346.958C273.966 346.958 280.353 354.709 280.353 365.443C280.353 376.176 274.122 383.375 264.495 383.375ZM260.554 351.55C257.08 352.114 256.378 358.502 258.667 366.441C261.035 374.438 264.821 379.464 268.45 378.783C271.924 378.161 272.704 372.207 270.427 364.268C267.982 356.201 264.196 350.869 260.567 351.55H260.554Z" fill="white"/>
<path d="M311.914 335.238V382.752H304.499L303.549 379.159C301.65 382.013 298.814 383.375 294.872 383.375C286.117 383.375 280.913 376.364 280.913 365.008C280.913 353.652 286.117 346.771 294.872 346.771C297.864 346.771 300.154 347.581 301.897 349.378V335.238H311.914ZM297.162 379.652C300.154 379.652 301.572 376.059 301.897 370.281V359.735C301.585 354.028 300.167 350.434 297.162 350.434C293.22 350.434 291.008 356.271 291.008 365.008C291.008 373.745 293.22 379.652 297.162 379.652Z" fill="white"/>
<path d="M77.4774 334.186V324.686C77.4774 322.959 76.7099 322.255 75.5261 322.255H74.4203V334.186H70.7387V322.255H69.6329C68.4491 322.255 67.6816 322.959 67.6816 324.686V334.186H64V324.545C64 321.585 65.496 320.235 68.8654 320.235H76.2806C79.663 320.235 81.159 321.585 81.159 324.545V334.186H77.4774Z" fill="white"/>
<path d="M89.9407 320.235V334.186H86.3632V320.235H89.9407Z" fill="white"/>
<path d="M94.7009 329.548H98.4605V329.829C98.4605 331.297 99.2931 332.483 100.789 332.483C101.908 332.483 102.727 331.838 102.727 330.781C102.727 327.563 94.9741 329.371 94.9741 324.216C94.9871 321.609 97.1336 320.012 100.425 320.012C103.989 320.012 106.266 321.891 106.266 324.838H102.558V324.627C102.558 322.948 101.674 321.938 100.295 321.938C99.215 321.938 98.4995 322.56 98.4995 323.558C98.4995 326.847 106.344 324.944 106.344 330.146C106.344 332.801 104.106 334.409 100.724 334.409C97.0555 334.409 94.7139 332.519 94.7139 329.548H94.7009Z" fill="white"/>
<path d="M110.873 329.548H114.632V329.829C114.632 331.297 115.465 332.483 116.961 332.483C118.08 332.483 118.899 331.838 118.899 330.781C118.899 327.563 111.146 329.371 111.146 324.216C111.159 321.609 113.305 320.012 116.597 320.012C120.161 320.012 122.438 321.891 122.438 324.838H118.73V324.627C118.73 322.948 117.845 321.938 116.466 321.938C115.387 321.938 114.671 322.56 114.671 323.558C114.671 326.847 122.516 324.944 122.516 330.146C122.516 332.801 120.278 334.409 116.896 334.409C113.227 334.409 110.886 332.519 110.886 329.548H110.873Z" fill="white"/>
<path d="M130.894 320.235V334.186H127.316V320.235H130.894Z" fill="white"/>
<path d="M135.966 329.148V325.285C135.966 321.855 138.295 320 141.742 320C145.19 320 147.518 321.867 147.518 325.285V329.148C147.518 332.577 145.19 334.444 141.742 334.444C138.295 334.444 135.966 332.577 135.966 329.148ZM141.742 332.425C143.004 332.425 143.837 331.426 143.837 329.712V324.709C143.837 322.983 142.991 322.02 141.742 322.02C140.493 322.02 139.648 322.983 139.648 324.709V329.712C139.648 331.438 140.493 332.425 141.742 332.425Z" fill="white"/>
<path d="M160.422 334.186V324.932C160.422 323.194 159.655 322.243 158.471 322.255H156.272V334.186H152.591V320.235H159.225C162.608 320.235 164.091 321.996 164.091 324.956V334.186H160.409H160.422Z" fill="white"/>
<g opacity="0.15">
<path d="M-6.76372 24.9171C-6.76372 12.5562 3.42253 2.51885 16.0304 2.41537V-13.9812C15.9631 -13.9906 15.8959 -14 15.819 -14C12.3019 -13.9624 11.0142 -0.839482 7.75649 0.232926C4.46037 1.32415 -4.66881 -8.35575 -7.45561 -6.33322C-10.2232 -4.32011 -3.40993 7.01544 -5.44718 9.81875C-7.41716 12.528 -20.6209 9.92223 -21.6875 13.2712C-22.7542 16.6107 -10.3962 21.8598 -10.3673 25.1805C-10.3289 28.6235 -22.5332 34.1267 -21.4377 37.3251C-20.323 40.5517 -7.18654 37.7014 -5.12046 40.4388C-3.0736 43.1481 -9.66583 54.6435 -6.80215 56.6378C-4.03456 58.5663 4.86399 48.7077 8.27542 49.7612C11.4754 50.7396 13.0514 62.2915 16.0304 63.6931V47.4189C3.42253 47.3154 -6.76372 37.2874 -6.76372 24.9171Z" fill="#A6D8BA"/>
<path d="M16.2225 2.33069C16.1553 2.33069 16.0976 2.33069 16.0303 2.33069V47.5035C16.0976 47.5035 16.1553 47.5035 16.2225 47.5035C28.9649 47.5035 39.2953 37.3909 39.2953 24.9171C39.2953 12.4433 28.9649 2.33069 16.2225 2.33069Z" fill="#A6D8BA"/>
<path d="M52.8533 24.9171C52.8533 12.5562 63.0396 2.51885 75.6475 2.41537V-13.9812C75.5802 -13.9906 75.5129 -14 75.4361 -14C71.9189 -13.9624 70.6312 -0.839482 67.3736 0.232926C64.0774 1.32415 54.9483 -8.35575 52.1615 -6.33322C49.3939 -4.32011 56.2071 7.01544 54.1699 9.81875C52.1999 12.528 38.9962 9.92223 37.9295 13.2712C36.8629 16.6107 49.2209 21.8598 49.2497 25.1805C49.2882 28.6235 37.0839 34.1267 38.1794 37.3251C39.2941 40.5517 52.4305 37.7014 54.4966 40.4388C56.5435 43.1481 49.9512 54.6435 52.8149 56.6378C55.5825 58.5663 64.481 48.7077 67.8925 49.7612C71.0925 50.7396 72.6685 62.2915 75.6475 63.6931V47.4189C63.0396 47.3154 52.8533 37.2874 52.8533 24.9171Z" fill="#A6D8BA"/>
<path d="M75.8494 2.33081C75.7821 2.33081 75.7245 2.33081 75.6572 2.33081V47.5037C75.7245 47.5037 75.7821 47.5037 75.8494 47.5037C88.5918 47.5037 98.9222 37.391 98.9222 24.9172C98.9222 12.4434 88.5918 2.33081 75.8494 2.33081Z" fill="#A6D8BA"/>
<path d="M112.482 24.9171C112.482 12.5562 122.668 2.51885 135.276 2.41537V-13.9812C135.209 -13.9906 135.142 -14 135.065 -14C131.548 -13.9624 130.26 -0.839482 127.002 0.232926C123.706 1.32415 114.577 -8.35575 111.79 -6.33322C109.023 -4.32011 115.836 7.01544 113.799 9.81875C111.829 12.528 98.6249 9.92223 97.5583 13.2712C96.4916 16.6107 108.85 21.8598 108.878 25.1805C108.917 28.6235 96.7126 34.1267 97.8081 37.3251C98.9228 40.5517 112.059 37.7014 114.125 40.4388C116.172 43.1481 109.58 54.6435 112.444 56.6378C115.211 58.5663 124.11 48.7077 127.521 49.7612C130.721 50.7396 132.297 62.2915 135.276 63.6931V47.4189C122.668 47.3154 112.482 37.2874 112.482 24.9171Z" fill="#A6D8BA"/>
<path d="M135.468 2.33081C135.401 2.33081 135.343 2.33081 135.276 2.33081V47.5037C135.343 47.5037 135.401 47.5037 135.468 47.5037C148.211 47.5037 158.541 37.391 158.541 24.9172C158.541 12.4434 148.211 2.33081 135.468 2.33081Z" fill="#A6D8BA"/>
<path d="M172.1 24.9171C172.1 12.5562 182.287 2.51885 194.895 2.41537V-13.9812C194.827 -13.9906 194.76 -14 194.683 -14C191.166 -13.9624 189.878 -0.839482 186.621 0.232926C183.325 1.32415 174.195 -8.35575 171.409 -6.33322C168.641 -4.32011 175.454 7.01544 173.417 9.81875C171.447 12.528 158.243 9.92223 157.177 13.2712C156.11 16.6107 168.468 21.8598 168.497 25.1805C168.535 28.6235 156.331 34.1267 157.426 37.3251C158.541 40.5517 171.678 37.7014 173.744 40.4388C175.791 43.1481 169.198 54.6435 172.062 56.6378C174.83 58.5663 183.728 48.7077 187.14 49.7612C190.34 50.7396 191.916 62.2915 194.895 63.6931V47.4189C182.287 47.3154 172.1 37.2874 172.1 24.9171Z" fill="#A6D8BA"/>
<path d="M195.098 2.33069C195.03 2.33069 194.973 2.33069 194.905 2.33069V47.5035C194.973 47.5035 195.03 47.5035 195.098 47.5035C207.84 47.5035 218.17 37.3909 218.17 24.9171C218.17 12.4433 207.84 2.33069 195.098 2.33069Z" fill="#A6D8BA"/>
<path d="M231.727 24.9171C231.727 12.5562 241.914 2.51885 254.521 2.41537V-13.9812C254.454 -13.9906 254.387 -14 254.31 -14C250.793 -13.9624 249.505 -0.839482 246.248 0.232926C242.951 1.32415 233.822 -8.35575 231.035 -6.33322C228.268 -4.32011 235.081 7.01544 233.044 9.81875C231.074 12.528 217.87 9.92223 216.804 13.2712C215.737 16.6107 228.095 21.8598 228.124 25.1805C228.162 28.6235 215.958 34.1267 217.053 37.3251C218.168 40.5517 231.305 37.7014 233.371 40.4388C235.417 43.1481 228.825 54.6435 231.689 56.6378C234.457 58.5663 243.355 48.7077 246.766 49.7612C249.967 50.7396 251.543 62.2915 254.521 63.6931V47.4189C241.914 47.3154 231.727 37.2874 231.727 24.9171Z" fill="#A6D8BA"/>
<path d="M254.714 2.33069C254.646 2.33069 254.589 2.33069 254.521 2.33069V47.5035C254.589 47.5035 254.646 47.5035 254.714 47.5035C267.456 47.5035 277.786 37.3909 277.786 24.9171C277.786 12.4433 267.456 2.33069 254.714 2.33069Z" fill="#A6D8BA"/>
<path d="M291.355 24.9171C291.355 12.5562 301.542 2.51885 314.149 2.41537V-13.9812C314.082 -13.9906 314.015 -14 313.938 -14C310.421 -13.9624 309.133 -0.839482 305.876 0.232926C302.579 1.32415 293.45 -8.35575 290.663 -6.33322C287.896 -4.32011 294.709 7.01544 292.672 9.81875C290.702 12.528 277.498 9.92223 276.431 13.2712C275.365 16.6107 287.723 21.8598 287.752 25.1805C287.79 28.6235 275.586 34.1267 276.681 37.3251C277.796 40.5517 290.932 37.7014 292.999 40.4388C295.045 43.1481 288.453 54.6435 291.317 56.6378C294.084 58.5663 302.983 48.7077 306.394 49.7612C309.594 50.7396 311.17 62.2915 314.149 63.6931V47.4189C301.542 47.3154 291.355 37.2874 291.355 24.9171Z" fill="#A6D8BA"/>
<path d="M314.341 2.33069C314.274 2.33069 314.217 2.33069 314.149 2.33069V47.5035C314.217 47.5035 314.274 47.5035 314.341 47.5035C327.084 47.5035 337.414 37.3909 337.414 24.9171C337.414 12.4433 327.084 2.33069 314.341 2.33069Z" fill="#A6D8BA"/>
<path d="M350.974 24.9171C350.974 12.5562 361.161 2.51885 373.769 2.41537V-13.9812C373.701 -13.9906 373.634 -14 373.557 -14C370.04 -13.9624 368.752 -0.839482 365.495 0.232926C362.199 1.32415 353.069 -8.35575 350.283 -6.33322C347.515 -4.32011 354.328 7.01544 352.291 9.81875C350.321 12.528 337.117 9.92223 336.051 13.2712C334.984 16.6107 347.342 21.8598 347.371 25.1805C347.409 28.6235 335.205 34.1267 336.3 37.3251C337.415 40.5517 350.552 37.7014 352.618 40.4388C354.665 43.1481 348.072 54.6435 350.936 56.6378C353.704 58.5663 362.602 48.7077 366.014 49.7612C369.214 50.7396 370.79 62.2915 373.769 63.6931V47.4189C361.161 47.3154 350.974 37.2874 350.974 24.9171Z" fill="#A6D8BA"/>
<path d="M373.961 2.33069C373.893 2.33069 373.836 2.33069 373.768 2.33069V47.5035C373.836 47.5035 373.893 47.5035 373.961 47.5035C386.703 47.5035 397.033 37.3909 397.033 24.9171C397.033 12.4433 386.703 2.33069 373.961 2.33069Z" fill="#A6D8BA"/>
<path d="M-6.76372 100.71C-6.76372 88.3492 3.42253 78.3118 16.0304 78.2083V61.8118C15.9631 61.8024 15.8959 61.793 15.819 61.793C12.3019 61.8306 11.0142 74.9535 7.75649 76.0259C4.46037 77.1171 -4.66881 67.4372 -7.45561 69.4597C-10.2232 71.4729 -3.40993 82.8084 -5.44718 85.6117C-7.41716 88.321 -20.6209 85.7152 -21.6875 89.0641C-22.7542 92.4036 -10.3962 97.6528 -10.3673 100.973C-10.3289 104.416 -22.5332 109.92 -21.4377 113.118C-20.323 116.345 -7.18654 113.494 -5.12046 116.232C-3.0736 118.941 -9.66583 130.436 -6.80215 132.431C-4.03456 134.359 4.86399 124.501 8.27542 125.554C11.4754 126.533 13.0514 138.084 16.0304 139.486V123.212C3.42253 123.108 -6.76372 113.08 -6.76372 100.71Z" fill="#A6D8BA"/>
<path d="M16.2225 78.1143C16.1553 78.1143 16.0976 78.1143 16.0303 78.1143V123.287C16.0976 123.287 16.1553 123.287 16.2225 123.287C28.9649 123.287 39.2953 113.175 39.2953 100.701C39.2953 88.2269 28.9649 78.1143 16.2225 78.1143Z" fill="#A6D8BA"/>
<path d="M52.8533 100.71C52.8533 88.3492 63.0396 78.3118 75.6475 78.2083V61.8118C75.5802 61.8024 75.5129 61.793 75.4361 61.793C71.9189 61.8306 70.6312 74.9535 67.3736 76.0259C64.0774 77.1171 54.9483 67.4372 52.1615 69.4597C49.3939 71.4729 56.2071 82.8084 54.1699 85.6117C52.1999 88.321 38.9962 85.7152 37.9295 89.0641C36.8629 92.4036 49.2209 97.6528 49.2497 100.973C49.2882 104.416 37.0839 109.92 38.1794 113.118C39.2941 116.345 52.4305 113.494 54.4966 116.232C56.5435 118.941 49.9512 130.436 52.8149 132.431C55.5825 134.359 64.481 124.501 67.8925 125.554C71.0925 126.533 72.6685 138.084 75.6475 139.486V123.212C63.0396 123.108 52.8533 113.08 52.8533 100.71Z" fill="#A6D8BA"/>
<path d="M75.8494 78.1143C75.7821 78.1143 75.7245 78.1143 75.6572 78.1143V123.287C75.7245 123.287 75.7821 123.287 75.8494 123.287C88.5918 123.287 98.9222 113.174 98.9222 100.701C98.9222 88.2269 88.5918 78.1143 75.8494 78.1143Z" fill="#A6D8BA"/>
<path d="M112.482 108.71C112.482 96.3491 122.668 86.3117 135.276 86.2082V69.8117C135.209 69.8023 135.142 69.7928 135.065 69.7928C131.548 69.8305 130.26 82.9534 127.002 84.0258C123.706 85.117 114.577 75.4371 111.79 77.4596C109.023 79.4727 115.836 90.8083 113.799 93.6116C111.829 96.3208 98.6249 93.7151 97.5583 97.064C96.4916 100.404 108.85 105.653 108.878 108.973C108.917 112.416 96.7126 117.92 97.8081 121.118C98.9228 124.345 112.059 121.494 114.125 124.232C116.172 126.941 109.58 138.436 112.444 140.431C115.211 142.359 124.11 132.501 127.521 133.554C130.721 134.532 132.297 146.084 135.276 147.486V131.212C122.668 131.108 112.482 121.08 112.482 108.71Z" fill="#A6D8BA"/>
<path d="M135.468 86.1144C135.401 86.1144 135.343 86.1144 135.276 86.1144V131.287C135.343 131.287 135.401 131.287 135.468 131.287C148.211 131.287 158.541 121.175 158.541 108.701C158.541 96.227 148.211 86.1144 135.468 86.1144Z" fill="#A6D8BA"/>
<path d="M172.1 108.71C172.1 96.3492 182.287 86.3118 194.895 86.2083V69.8118C194.827 69.8024 194.76 69.793 194.683 69.793C191.166 69.8306 189.878 82.9535 186.621 84.0259C183.325 85.1171 174.195 75.4372 171.409 77.4597C168.641 79.4729 175.454 90.8084 173.417 93.6117C171.447 96.321 158.243 93.7152 157.177 97.0641C156.11 100.404 168.468 105.653 168.497 108.973C168.535 112.416 156.331 117.92 157.426 121.118C158.541 124.345 171.678 121.494 173.744 124.232C175.791 126.941 169.198 138.436 172.062 140.431C174.83 142.359 183.728 132.501 187.14 133.554C190.34 134.533 191.916 146.084 194.895 147.486V131.212C182.287 131.108 172.1 121.08 172.1 108.71Z" fill="#A6D8BA"/>
<path d="M195.098 78.114C195.03 78.114 194.973 78.114 194.905 78.114V123.287C194.973 123.287 195.03 123.287 195.098 123.287C207.84 123.287 218.17 113.174 218.17 100.7C218.17 88.2266 207.84 78.114 195.098 78.114Z" fill="#A6D8BA"/>
<path d="M231.727 100.71C231.727 88.3492 241.914 78.3118 254.521 78.2083V61.8118C254.454 61.8024 254.387 61.793 254.31 61.793C250.793 61.8306 249.505 74.9535 246.248 76.0259C242.951 77.1171 233.822 67.4372 231.035 69.4597C228.268 71.4729 235.081 82.8084 233.044 85.6117C231.074 88.321 217.87 85.7152 216.804 89.0641C215.737 92.4036 228.095 97.6528 228.124 100.973C228.162 104.416 215.958 109.92 217.053 113.118C218.168 116.345 231.305 113.494 233.371 116.232C235.417 118.941 228.825 130.436 231.689 132.431C234.457 134.359 243.355 124.501 246.766 125.554C249.967 126.533 251.543 138.084 254.521 139.486V123.212C241.914 123.108 231.727 113.08 231.727 100.71Z" fill="#A6D8BA"/>
<path d="M254.714 78.1143C254.646 78.1143 254.589 78.1143 254.521 78.1143V123.287C254.589 123.287 254.646 123.287 254.714 123.287C267.456 123.287 277.786 113.175 277.786 100.701C277.786 88.2269 267.456 78.1143 254.714 78.1143Z" fill="#A6D8BA"/>
<path d="M291.355 100.71C291.355 88.3492 301.542 78.3118 314.149 78.2083V61.8118C314.082 61.8024 314.015 61.793 313.938 61.793C310.421 61.8306 309.133 74.9535 305.876 76.0259C302.579 77.1171 293.45 67.4372 290.663 69.4597C287.896 71.4729 294.709 82.8084 292.672 85.6117C290.702 88.321 277.498 85.7152 276.431 89.0641C275.365 92.4036 287.723 97.6528 287.752 100.973C287.79 104.416 275.586 109.92 276.681 113.118C277.796 116.345 290.932 113.494 292.999 116.232C295.045 118.941 288.453 130.436 291.317 132.431C294.084 134.359 302.983 124.501 306.394 125.554C309.594 126.533 311.17 138.084 314.149 139.486V123.212C301.542 123.108 291.355 113.08 291.355 100.71Z" fill="#A6D8BA"/>
<path d="M314.341 78.114C314.274 78.114 314.217 78.114 314.149 78.114V123.287C314.217 123.287 314.274 123.287 314.341 123.287C327.084 123.287 337.414 113.174 337.414 100.7C337.414 88.2266 327.084 78.114 314.341 78.114Z" fill="#A6D8BA"/>
<path d="M350.974 100.71C350.974 88.3492 361.161 78.3118 373.769 78.2083V61.8118C373.701 61.8024 373.634 61.793 373.557 61.793C370.04 61.8306 368.752 74.9535 365.495 76.0259C362.199 77.1171 353.069 67.4372 350.283 69.4597C347.515 71.4729 354.328 82.8084 352.291 85.6117C350.321 88.321 337.117 85.7152 336.051 89.0641C334.984 92.4036 347.342 97.6528 347.371 100.973C347.409 104.416 335.205 109.92 336.3 113.118C337.415 116.345 350.552 113.494 352.618 116.232C354.665 118.941 348.072 130.436 350.936 132.431C353.704 134.359 362.602 124.501 366.014 125.554C369.214 126.533 370.79 138.084 373.769 139.486V123.212C361.161 123.108 350.974 113.08 350.974 100.71Z" fill="#A6D8BA"/>
<path d="M373.961 78.114C373.893 78.114 373.836 78.114 373.768 78.114V123.287C373.836 123.287 373.893 123.287 373.961 123.287C386.703 123.287 397.033 113.174 397.033 100.7C397.033 88.2266 386.703 78.114 373.961 78.114Z" fill="#A6D8BA"/>
<path d="M-6.76372 176.494C-6.76372 164.133 3.42253 154.095 16.0304 153.992V137.595C15.9631 137.586 15.8959 137.577 15.819 137.577C12.3019 137.614 11.0142 150.737 7.75649 151.81C4.46037 152.901 -4.66881 143.221 -7.45561 145.243C-10.2232 147.256 -3.40993 158.592 -5.44718 161.395C-7.41716 164.105 -20.6209 161.499 -21.6875 164.848C-22.7542 168.187 -10.3962 173.436 -10.3673 176.757C-10.3289 180.2 -22.5332 185.703 -21.4377 188.902C-20.323 192.128 -7.18654 189.278 -5.12046 192.015C-3.0736 194.725 -9.66583 206.22 -6.80215 208.214C-4.03456 210.143 4.86399 200.284 8.27542 201.338C11.4754 202.316 13.0514 213.868 16.0304 215.27V198.995C3.42253 198.892 -6.76372 188.864 -6.76372 176.494Z" fill="#A6D8BA"/>
<path d="M16.2226 153.907C16.1553 153.907 16.0977 153.907 16.0304 153.907V199.08C16.0977 199.08 16.1553 199.08 16.2226 199.08C28.965 199.08 39.2954 188.968 39.2954 176.494C39.2954 164.02 28.965 153.907 16.2226 153.907Z" fill="#A6D8BA"/>
<path d="M52.8533 176.494C52.8533 164.133 63.0396 154.096 75.6475 153.992V137.596C75.5802 137.586 75.5129 137.577 75.4361 137.577C71.9189 137.615 70.6312 150.737 67.3736 151.81C64.0774 152.901 54.9483 143.221 52.1615 145.244C49.3939 147.257 56.2071 158.592 54.1699 161.396C52.1999 164.105 38.9962 161.499 37.9295 164.848C36.8629 168.188 49.2209 173.437 49.2497 176.757C49.2882 180.2 37.0839 185.704 38.1794 188.902C39.2941 192.129 52.4305 189.278 54.4966 192.016C56.5435 194.725 49.9512 206.22 52.8149 208.215C55.5825 210.143 64.481 200.285 67.8925 201.338C71.0925 202.316 72.6685 213.868 75.6475 215.27V198.996C63.0396 198.892 52.8533 188.864 52.8533 176.494Z" fill="#A6D8BA"/>
<path d="M75.8494 153.908C75.7821 153.908 75.7245 153.908 75.6572 153.908V199.081C75.7245 199.081 75.7821 199.081 75.8494 199.081C88.5918 199.081 98.9222 188.968 98.9222 176.494C98.9222 164.02 88.5918 153.908 75.8494 153.908Z" fill="#A6D8BA"/>
<path d="M112.482 176.494C112.482 164.133 122.669 154.096 135.276 153.992V137.595C135.209 137.586 135.142 137.577 135.065 137.577C131.548 137.614 130.26 150.737 127.002 151.81C123.706 152.901 114.577 143.221 111.79 145.243C109.023 147.257 115.836 158.592 113.799 161.395C111.829 164.105 98.6251 161.499 97.5584 164.848C96.4918 168.187 108.85 173.436 108.879 176.757C108.917 180.2 96.7128 185.703 97.8083 188.902C98.923 192.128 112.059 189.278 114.126 192.015C116.172 194.725 109.58 206.22 112.444 208.214C115.211 210.143 124.11 200.284 127.521 201.338C130.721 202.316 132.297 213.868 135.276 215.27V198.996C122.669 198.892 112.482 188.864 112.482 176.494Z" fill="#A6D8BA"/>
<path d="M135.469 153.907C135.401 153.907 135.344 153.907 135.276 153.907V199.08C135.344 199.08 135.401 199.08 135.469 199.08C148.211 199.08 158.541 188.968 158.541 176.494C158.541 164.02 148.211 153.907 135.469 153.907Z" fill="#A6D8BA"/>
<path d="M172.1 176.494C172.1 164.133 182.287 154.095 194.895 153.992V137.595C194.827 137.586 194.76 137.576 194.683 137.576C191.166 137.614 189.878 150.737 186.621 151.809C183.325 152.901 174.195 143.221 171.409 145.243C168.641 147.256 175.454 158.592 173.417 161.395C171.447 164.104 158.243 161.499 157.177 164.848C156.11 168.187 168.468 173.436 168.497 176.757C168.535 180.2 156.331 185.703 157.426 188.901C158.541 192.128 171.678 189.278 173.744 192.015C175.791 194.724 169.198 206.22 172.062 208.214C174.83 210.143 183.728 200.284 187.14 201.338C190.34 202.316 191.916 213.868 194.895 215.27V198.995C182.287 198.892 172.1 188.864 172.1 176.494Z" fill="#A6D8BA"/>
<path d="M195.098 153.907C195.03 153.907 194.973 153.907 194.905 153.907V199.08C194.973 199.08 195.03 199.08 195.098 199.08C207.84 199.08 218.17 188.968 218.17 176.494C218.17 164.02 207.84 153.907 195.098 153.907Z" fill="#A6D8BA"/>
<path d="M231.727 176.494C231.727 164.133 241.914 154.095 254.521 153.992V137.595C254.454 137.586 254.387 137.576 254.31 137.576C250.793 137.614 249.505 150.737 246.248 151.809C242.951 152.901 233.822 143.221 231.035 145.243C228.268 147.256 235.081 158.592 233.044 161.395C231.074 164.104 217.87 161.499 216.804 164.848C215.737 168.187 228.095 173.436 228.124 176.757C228.162 180.2 215.958 185.703 217.053 188.901C218.168 192.128 231.305 189.278 233.371 192.015C235.417 194.724 228.825 206.22 231.689 208.214C234.457 210.143 243.355 200.284 246.766 201.338C249.967 202.316 251.543 213.868 254.521 215.27V198.995C241.914 198.892 231.727 188.864 231.727 176.494Z" fill="#A6D8BA"/>
<path d="M254.714 153.907C254.646 153.907 254.589 153.907 254.521 153.907V199.08C254.589 199.08 254.646 199.08 254.714 199.08C267.456 199.08 277.786 188.968 277.786 176.494C277.786 164.02 267.456 153.907 254.714 153.907Z" fill="#A6D8BA"/>
<path d="M291.355 176.494C291.355 164.133 301.542 154.095 314.149 153.992V137.595C314.082 137.586 314.015 137.576 313.938 137.576C310.421 137.614 309.133 150.737 305.876 151.809C302.579 152.901 293.45 143.221 290.663 145.243C287.896 147.256 294.709 158.592 292.672 161.395C290.702 164.104 277.498 161.499 276.431 164.848C275.365 168.187 287.723 173.436 287.752 176.757C287.79 180.2 275.586 185.703 276.681 188.901C277.796 192.128 290.932 189.278 292.999 192.015C295.045 194.724 288.453 206.22 291.317 208.214C294.084 210.143 302.983 200.284 306.394 201.338C309.594 202.316 311.17 213.868 314.149 215.27V198.995C301.542 198.892 291.355 188.864 291.355 176.494Z" fill="#A6D8BA"/>
<path d="M314.341 153.907C314.274 153.907 314.217 153.907 314.149 153.907V199.08C314.217 199.08 314.274 199.08 314.341 199.08C327.084 199.08 337.414 188.968 337.414 176.494C337.414 164.02 327.084 153.907 314.341 153.907Z" fill="#A6D8BA"/>
<path d="M350.974 176.494C350.974 164.133 361.161 154.095 373.769 153.992V137.595C373.701 137.586 373.634 137.576 373.557 137.576C370.04 137.614 368.752 150.737 365.495 151.809C362.199 152.901 353.069 143.221 350.283 145.243C347.515 147.256 354.328 158.592 352.291 161.395C350.321 164.104 337.117 161.499 336.051 164.848C334.984 168.187 347.342 173.436 347.371 176.757C347.409 180.2 335.205 185.703 336.3 188.901C337.415 192.128 350.552 189.278 352.618 192.015C354.665 194.724 348.072 206.22 350.936 208.214C353.704 210.143 362.602 200.284 366.014 201.338C369.214 202.316 370.79 213.868 373.769 215.27V198.995C361.161 198.892 350.974 188.864 350.974 176.494Z" fill="#A6D8BA"/>
<path d="M373.961 153.907C373.893 153.907 373.836 153.907 373.768 153.907V199.08C373.836 199.08 373.893 199.08 373.961 199.08C386.703 199.08 397.033 188.968 397.033 176.494C397.033 164.02 386.703 153.907 373.961 153.907Z" fill="#A6D8BA"/>
<path d="M-6.76372 252.286C-6.76372 239.925 3.42253 229.888 16.0304 229.785V213.388C15.9631 213.379 15.8959 213.369 15.819 213.369C12.3019 213.407 11.0142 226.53 7.75649 227.602C4.46037 228.693 -4.66881 219.014 -7.45561 221.036C-10.2232 223.049 -3.40993 234.385 -5.44718 237.188C-7.41716 239.897 -20.6209 237.291 -21.6875 240.64C-22.7542 243.98 -10.3962 249.229 -10.3673 252.55C-10.3289 255.993 -22.5332 261.496 -21.4377 264.694C-20.323 267.921 -7.18654 265.071 -5.12046 267.808C-3.0736 270.517 -9.66583 282.013 -6.80215 284.007C-4.03456 285.936 4.86399 276.077 8.27542 277.131C11.4754 278.109 13.0514 289.661 16.0304 291.062V274.788C3.42253 274.685 -6.76372 264.657 -6.76372 252.286Z" fill="#A6D8BA"/>
<path d="M16.2225 229.7C16.1553 229.7 16.0976 229.7 16.0303 229.7V274.873C16.0976 274.873 16.1553 274.873 16.2225 274.873C28.9649 274.873 39.2953 264.76 39.2953 252.287C39.2953 239.813 28.9649 229.7 16.2225 229.7Z" fill="#A6D8BA"/>
<path d="M52.8533 252.287C52.8533 239.926 63.0396 229.888 75.6475 229.785V213.388C75.5802 213.379 75.5129 213.369 75.4361 213.369C71.9189 213.407 70.6312 226.53 67.3736 227.602C64.0774 228.694 54.9483 219.014 52.1615 221.036C49.3939 223.049 56.2071 234.385 54.1699 237.188C52.1999 239.897 38.9962 237.292 37.9295 240.641C36.8629 243.98 49.2209 249.229 49.2497 252.55C49.2882 255.993 37.0839 261.496 38.1794 264.695C39.2941 267.921 52.4305 265.071 54.4966 267.808C56.5435 270.518 49.9512 282.013 52.8149 284.007C55.5825 285.936 64.481 276.077 67.8925 277.131C71.0925 278.109 72.6685 289.661 75.6475 291.063V274.788C63.0396 274.685 52.8533 264.657 52.8533 252.287Z" fill="#A6D8BA"/>
<path d="M75.8494 229.7C75.7821 229.7 75.7245 229.7 75.6572 229.7V274.873C75.7245 274.873 75.7821 274.873 75.8494 274.873C88.5918 274.873 98.9222 264.76 98.9222 252.287C98.9222 239.813 88.5918 229.7 75.8494 229.7Z" fill="#A6D8BA"/>
<path d="M112.482 252.286C112.482 239.925 122.668 229.888 135.276 229.785V213.388C135.209 213.379 135.142 213.369 135.065 213.369C131.548 213.407 130.26 226.53 127.002 227.602C123.706 228.693 114.577 219.014 111.79 221.036C109.023 223.049 115.836 234.385 113.799 237.188C111.829 239.897 98.6249 237.291 97.5583 240.64C96.4916 243.98 108.85 249.229 108.878 252.55C108.917 255.993 96.7126 261.496 97.8081 264.694C98.9228 267.921 112.059 265.071 114.125 267.808C116.172 270.517 109.58 282.013 112.444 284.007C115.211 285.936 124.11 276.077 127.521 277.131C130.721 278.109 132.297 289.661 135.276 291.062V274.788C122.668 274.685 112.482 264.657 112.482 252.286Z" fill="#A6D8BA"/>
<path d="M135.468 229.7C135.401 229.7 135.343 229.7 135.276 229.7V274.873C135.343 274.873 135.401 274.873 135.468 274.873C148.211 274.873 158.541 264.76 158.541 252.286C158.541 239.812 148.211 229.7 135.468 229.7Z" fill="#A6D8BA"/>
<path d="M172.1 252.287C172.1 239.926 182.287 229.888 194.895 229.785V213.388C194.827 213.379 194.76 213.369 194.683 213.369C191.166 213.407 189.878 226.53 186.621 227.602C183.325 228.694 174.195 219.014 171.409 221.036C168.641 223.049 175.454 234.385 173.417 237.188C171.447 239.897 158.243 237.292 157.177 240.641C156.11 243.98 168.468 249.229 168.497 252.55C168.535 255.993 156.331 261.496 157.426 264.695C158.541 267.921 171.678 265.071 173.744 267.808C175.791 270.518 169.198 282.013 172.062 284.007C174.83 285.936 183.728 276.077 187.14 277.131C190.34 278.109 191.916 289.661 194.895 291.063V274.788C182.287 274.685 172.1 264.657 172.1 252.287Z" fill="#A6D8BA"/>
<path d="M195.098 229.7C195.03 229.7 194.973 229.7 194.905 229.7V274.873C194.973 274.873 195.03 274.873 195.098 274.873C207.84 274.873 218.17 264.76 218.17 252.286C218.17 239.813 207.84 229.7 195.098 229.7Z" fill="#A6D8BA"/>
<path d="M231.727 252.286C231.727 239.926 241.914 229.888 254.521 229.785V213.388C254.454 213.379 254.387 213.369 254.31 213.369C250.793 213.407 249.505 226.53 246.248 227.602C242.951 228.693 233.822 219.014 231.035 221.036C228.268 223.049 235.081 234.385 233.044 237.188C231.074 239.897 217.87 237.292 216.804 240.64C215.737 243.98 228.095 249.229 228.124 252.55C228.162 255.993 215.958 261.496 217.053 264.694C218.168 267.921 231.305 265.071 233.371 267.808C235.417 270.517 228.825 282.013 231.689 284.007C234.457 285.936 243.355 276.077 246.766 277.131C249.967 278.109 251.543 289.661 254.521 291.062V274.788C241.914 274.685 231.727 264.657 231.727 252.286Z" fill="#A6D8BA"/>
<path d="M254.714 229.7C254.646 229.7 254.589 229.7 254.521 229.7V274.873C254.589 274.873 254.646 274.873 254.714 274.873C267.456 274.873 277.786 264.76 277.786 252.287C277.786 239.813 267.456 229.7 254.714 229.7Z" fill="#A6D8BA"/>
<path d="M291.355 252.287C291.355 239.926 301.542 229.888 314.149 229.785V213.388C314.082 213.379 314.015 213.369 313.938 213.369C310.421 213.407 309.133 226.53 305.876 227.602C302.579 228.694 293.45 219.014 290.663 221.036C287.896 223.049 294.709 234.385 292.672 237.188C290.702 239.897 277.498 237.292 276.431 240.641C275.365 243.98 287.723 249.229 287.752 252.55C287.79 255.993 275.586 261.496 276.681 264.695C277.796 267.921 290.932 265.071 292.999 267.808C295.045 270.518 288.453 282.013 291.317 284.007C294.084 285.936 302.983 276.077 306.394 277.131C309.594 278.109 311.17 289.661 314.149 291.063V274.788C301.542 274.685 291.355 264.657 291.355 252.287Z" fill="#A6D8BA"/>
<path d="M314.341 229.7C314.274 229.7 314.217 229.7 314.149 229.7V274.873C314.217 274.873 314.274 274.873 314.341 274.873C327.084 274.873 337.414 264.761 337.414 252.287C337.414 239.813 327.084 229.7 314.341 229.7Z" fill="#A6D8BA"/>
<path d="M350.974 252.287C350.974 239.926 361.161 229.888 373.769 229.785V213.388C373.701 213.379 373.634 213.369 373.557 213.369C370.04 213.407 368.752 226.53 365.495 227.602C362.199 228.694 353.069 219.014 350.283 221.036C347.515 223.049 354.328 234.385 352.291 237.188C350.321 239.897 337.117 237.292 336.051 240.641C334.984 243.98 347.342 249.229 347.371 252.55C347.409 255.993 335.205 261.496 336.3 264.695C337.415 267.921 350.552 265.071 352.618 267.808C354.665 270.518 348.072 282.013 350.936 284.007C353.704 285.936 362.602 276.077 366.014 277.131C369.214 278.109 370.79 289.661 373.769 291.063V274.788C361.161 274.685 350.974 264.657 350.974 252.287Z" fill="#A6D8BA"/>
<path d="M373.961 229.7C373.893 229.7 373.836 229.7 373.768 229.7V274.873C373.836 274.873 373.893 274.873 373.961 274.873C386.703 274.873 397.033 264.76 397.033 252.286C397.033 239.813 386.703 229.7 373.961 229.7Z" fill="#A6D8BA"/>
<path d="M-6.76372 328.08C-6.76372 315.719 3.42253 305.681 16.0304 305.578V289.181C15.9631 289.172 15.8959 289.162 15.819 289.162C12.3019 289.2 11.0142 302.323 7.75649 303.395C4.46037 304.487 -4.66881 294.807 -7.45561 296.829C-10.2232 298.842 -3.40993 310.178 -5.44718 312.981C-7.41716 315.69 -20.6209 313.085 -21.6875 316.434C-22.7542 319.773 -10.3962 325.022 -10.3673 328.343C-10.3289 331.786 -22.5332 337.289 -21.4377 340.487C-20.323 343.714 -7.18654 340.864 -5.12046 343.601C-3.0736 346.31 -9.66583 357.806 -6.80215 359.8C-4.03456 361.729 4.86399 351.87 8.27542 352.924C11.4754 353.902 13.0514 365.454 16.0304 366.855V350.581C3.42253 350.478 -6.76372 340.45 -6.76372 328.08Z" fill="#A6D8BA"/>
<path d="M16.2225 305.493C16.1553 305.493 16.0976 305.493 16.0303 305.493V350.666C16.0976 350.666 16.1553 350.666 16.2225 350.666C28.9649 350.666 39.2953 340.553 39.2953 328.079C39.2953 315.605 28.9649 305.493 16.2225 305.493Z" fill="#A6D8BA"/>
<path d="M52.8533 328.08C52.8533 315.719 63.0396 305.681 75.6475 305.578V289.181C75.5802 289.172 75.5129 289.162 75.4361 289.162C71.9189 289.2 70.6312 302.323 67.3736 303.395C64.0774 304.487 54.9483 294.807 52.1615 296.829C49.3939 298.842 56.2071 310.178 54.1699 312.981C52.1999 315.69 38.9962 313.085 37.9295 316.434C36.8629 319.773 49.2209 325.022 49.2497 328.343C49.2882 331.786 37.0839 337.289 38.1794 340.488C39.2941 343.714 52.4305 340.864 54.4966 343.601C56.5435 346.311 49.9512 357.806 52.8149 359.8C55.5825 361.729 64.481 351.87 67.8925 352.924C71.0925 353.902 72.6685 365.454 75.6475 366.856V350.581C63.0396 350.478 52.8533 340.45 52.8533 328.08Z" fill="#A6D8BA"/>
<path d="M75.8494 305.493C75.7821 305.493 75.7245 305.493 75.6572 305.493V350.666C75.7245 350.666 75.7821 350.666 75.8494 350.666C88.5918 350.666 98.9222 340.553 98.9222 328.079C98.9222 315.606 88.5918 305.493 75.8494 305.493Z" fill="#A6D8BA"/>
<path d="M112.482 328.08C112.482 315.719 122.668 305.681 135.276 305.578V289.181C135.209 289.172 135.142 289.162 135.065 289.162C131.548 289.2 130.26 302.323 127.002 303.395C123.706 304.487 114.577 294.807 111.79 296.829C109.023 298.842 115.836 310.178 113.799 312.981C111.829 315.69 98.6249 313.085 97.5583 316.434C96.4916 319.773 108.85 325.022 108.878 328.343C108.917 331.786 96.7126 337.289 97.8081 340.487C98.9228 343.714 112.059 340.864 114.125 343.601C116.172 346.31 109.58 357.806 112.444 359.8C115.211 361.729 124.11 351.87 127.521 352.924C130.721 353.902 132.297 365.454 135.276 366.855V350.581C122.668 350.478 112.482 340.45 112.482 328.08Z" fill="#A6D8BA"/>
<path d="M135.468 305.493C135.401 305.493 135.343 305.493 135.276 305.493V350.666C135.343 350.666 135.401 350.666 135.468 350.666C148.211 350.666 158.541 340.553 158.541 328.079C158.541 315.606 148.211 305.493 135.468 305.493Z" fill="#A6D8BA"/>
<path d="M172.1 328.08C172.1 315.719 182.287 305.681 194.895 305.578V289.181C194.827 289.172 194.76 289.162 194.683 289.162C191.166 289.2 189.878 302.323 186.621 303.395C183.325 304.487 174.195 294.807 171.409 296.829C168.641 298.842 175.454 310.178 173.417 312.981C171.447 315.69 158.243 313.085 157.177 316.434C156.11 319.773 168.468 325.022 168.497 328.343C168.535 331.786 156.331 337.289 157.426 340.488C158.541 343.714 171.678 340.864 173.744 343.601C175.791 346.311 169.198 357.806 172.062 359.8C174.83 361.729 183.728 351.87 187.14 352.924C190.34 353.902 191.916 365.454 194.895 366.856V350.581C182.287 350.478 172.1 340.45 172.1 328.08Z" fill="#A6D8BA"/>
<path d="M195.098 305.493C195.03 305.493 194.973 305.493 194.905 305.493V350.666C194.973 350.666 195.03 350.666 195.098 350.666C207.84 350.666 218.17 340.554 218.17 328.08C218.17 315.606 207.84 305.493 195.098 305.493Z" fill="#A6D8BA"/>
<path d="M231.727 328.079C231.727 315.719 241.914 305.681 254.521 305.578V289.181C254.454 289.172 254.387 289.162 254.31 289.162C250.793 289.2 249.505 302.323 246.248 303.395C242.951 304.486 233.822 294.807 231.035 296.829C228.268 298.842 235.081 310.178 233.044 312.981C231.074 315.69 217.87 313.085 216.804 316.433C215.737 319.773 228.095 325.022 228.124 328.343C228.162 331.786 215.958 337.289 217.053 340.487C218.168 343.714 231.305 340.864 233.371 343.601C235.417 346.31 228.825 357.806 231.689 359.8C234.457 361.729 243.355 351.87 246.766 352.924C249.967 353.902 251.543 365.454 254.521 366.855V350.581C241.914 350.478 231.727 340.45 231.727 328.079Z" fill="#A6D8BA"/>
<path d="M254.714 305.493C254.646 305.493 254.589 305.493 254.521 305.493V350.666C254.589 350.666 254.646 350.666 254.714 350.666C267.456 350.666 277.786 340.553 277.786 328.079C277.786 315.605 267.456 305.493 254.714 305.493Z" fill="#A6D8BA"/>
<path d="M291.355 328.08C291.355 315.719 301.542 305.681 314.149 305.578V289.181C314.082 289.172 314.015 289.162 313.938 289.162C310.421 289.2 309.133 302.323 305.876 303.395C302.579 304.487 293.45 294.807 290.663 296.829C287.896 298.842 294.709 310.178 292.672 312.981C290.702 315.69 277.498 313.085 276.431 316.434C275.365 319.773 287.723 325.022 287.752 328.343C287.79 331.786 275.586 337.289 276.681 340.488C277.796 343.714 290.932 340.864 292.999 343.601C295.045 346.311 288.453 357.806 291.317 359.8C294.084 361.729 302.983 351.87 306.394 352.924C309.594 353.902 311.17 365.454 314.149 366.856V350.581C301.542 350.478 291.355 340.45 291.355 328.08Z" fill="#A6D8BA"/>
<path d="M314.341 305.493C314.274 305.493 314.217 305.493 314.149 305.493V350.666C314.217 350.666 314.274 350.666 314.341 350.666C327.084 350.666 337.414 340.553 337.414 328.079C337.414 315.606 327.084 305.493 314.341 305.493Z" fill="#A6D8BA"/>
<path d="M350.974 328.08C350.974 315.719 361.161 305.681 373.769 305.578V289.181C373.701 289.172 373.634 289.162 373.557 289.162C370.04 289.2 368.752 302.323 365.495 303.395C362.199 304.487 353.069 294.807 350.283 296.829C347.515 298.842 354.328 310.178 352.291 312.981C350.321 315.69 337.117 313.085 336.051 316.434C334.984 319.773 347.342 325.022 347.371 328.343C347.409 331.786 335.205 337.289 336.3 340.488C337.415 343.714 350.552 340.864 352.618 343.601C354.665 346.311 348.072 357.806 350.936 359.8C353.704 361.729 362.602 351.87 366.014 352.924C369.214 353.902 370.79 365.454 373.769 366.856V350.581C361.161 350.478 350.974 340.45 350.974 328.08Z" fill="#A6D8BA"/>
<path d="M373.961 305.493C373.893 305.493 373.836 305.493 373.768 305.493V350.666C373.836 350.666 373.893 350.666 373.961 350.666C386.703 350.666 397.033 340.554 397.033 328.08C397.033 315.606 386.703 305.493 373.961 305.493Z" fill="#A6D8BA"/>
<path d="M-6.76372 403.872C-6.76372 391.511 3.42253 381.474 16.0304 381.371V364.974C15.9631 364.965 15.8959 364.955 15.819 364.955C12.3019 364.993 11.0142 378.116 7.75649 379.188C4.46037 380.279 -4.66881 370.599 -7.45561 372.622C-10.2232 374.635 -3.40993 385.971 -5.44718 388.774C-7.41716 391.483 -20.6209 388.877 -21.6875 392.226C-22.7542 395.566 -10.3962 400.815 -10.3673 404.136C-10.3289 407.579 -22.5332 413.082 -21.4377 416.28C-20.323 419.507 -7.18654 416.656 -5.12046 419.394C-3.0736 422.103 -9.66583 433.599 -6.80215 435.593C-4.03456 437.521 4.86399 427.663 8.27542 428.716C11.4754 429.695 13.0514 441.247 16.0304 442.648V426.374C3.42253 426.271 -6.76372 416.243 -6.76372 403.872Z" fill="#A6D8BA"/>
<path d="M16.2225 381.276C16.1553 381.276 16.0976 381.276 16.0303 381.276V426.449C16.0976 426.449 16.1553 426.449 16.2225 426.449C28.9649 426.449 39.2953 416.337 39.2953 403.863C39.2953 391.389 28.9649 381.276 16.2225 381.276Z" fill="#A6D8BA"/>
<path d="M52.8533 403.872C52.8533 391.511 63.0396 381.474 75.6475 381.37V364.974C75.5802 364.964 75.5129 364.955 75.4361 364.955C71.9189 364.993 70.6312 378.116 67.3736 379.188C64.0774 380.279 54.9483 370.599 52.1615 372.622C49.3939 374.635 56.2071 385.971 54.1699 388.774C52.1999 391.483 38.9962 388.877 37.9295 392.226C36.8629 395.566 49.2209 400.815 49.2497 404.136C49.2882 407.579 37.0839 413.082 38.1794 416.28C39.2941 419.507 52.4305 416.656 54.4966 419.394C56.5435 422.103 49.9512 433.599 52.8149 435.593C55.5825 437.521 64.481 427.663 67.8925 428.716C71.0925 429.695 72.6685 441.247 75.6475 442.648V426.374C63.0396 426.27 52.8533 416.243 52.8533 403.872Z" fill="#A6D8BA"/>
<path d="M75.8494 381.277C75.7821 381.277 75.7245 381.277 75.6572 381.277V426.45C75.7245 426.45 75.7821 426.45 75.8494 426.45C88.5918 426.45 98.9222 416.337 98.9222 403.863C98.9222 391.389 88.5918 381.277 75.8494 381.277Z" fill="#A6D8BA"/>
<path d="M112.482 403.872C112.482 391.511 122.668 381.474 135.276 381.371V364.974C135.209 364.965 135.142 364.955 135.065 364.955C131.548 364.993 130.26 378.116 127.002 379.188C123.706 380.279 114.577 370.599 111.79 372.622C109.023 374.635 115.836 385.971 113.799 388.774C111.829 391.483 98.6249 388.877 97.5583 392.226C96.4916 395.566 108.85 400.815 108.878 404.136C108.917 407.579 96.7126 413.082 97.8081 416.28C98.9228 419.507 112.059 416.656 114.125 419.394C116.172 422.103 109.58 433.599 112.444 435.593C115.211 437.521 124.11 427.663 127.521 428.716C130.721 429.695 132.297 441.247 135.276 442.648V426.374C122.668 426.271 112.482 416.243 112.482 403.872Z" fill="#A6D8BA"/>
<path d="M135.468 381.277C135.401 381.277 135.343 381.277 135.276 381.277V426.45C135.343 426.45 135.401 426.45 135.468 426.45C148.211 426.45 158.541 416.337 158.541 403.863C158.541 391.39 148.211 381.277 135.468 381.277Z" fill="#A6D8BA"/>
<path d="M172.1 403.872C172.1 391.511 182.287 381.474 194.895 381.37V364.974C194.827 364.964 194.76 364.955 194.683 364.955C191.166 364.993 189.878 378.116 186.621 379.188C183.325 380.279 174.195 370.599 171.409 372.622C168.641 374.635 175.454 385.971 173.417 388.774C171.447 391.483 158.243 388.877 157.177 392.226C156.11 395.566 168.468 400.815 168.497 404.136C168.535 407.579 156.331 413.082 157.426 416.28C158.541 419.507 171.678 416.656 173.744 419.394C175.791 422.103 169.198 433.599 172.062 435.593C174.83 437.521 183.728 427.663 187.14 428.716C190.34 429.695 191.916 441.247 194.895 442.648V426.374C182.287 426.27 172.1 416.243 172.1 403.872Z" fill="#A6D8BA"/>
<path d="M195.098 381.276C195.03 381.276 194.973 381.276 194.905 381.276V426.449C194.973 426.449 195.03 426.449 195.098 426.449C207.84 426.449 218.17 416.336 218.17 403.863C218.17 391.389 207.84 381.276 195.098 381.276Z" fill="#A6D8BA"/>
<path d="M231.727 403.872C231.727 391.511 241.914 381.474 254.521 381.371V364.974C254.454 364.965 254.387 364.955 254.31 364.955C250.793 364.993 249.505 378.116 246.248 379.188C242.951 380.279 233.822 370.599 231.035 372.622C228.268 374.635 235.081 385.971 233.044 388.774C231.074 391.483 217.87 388.877 216.804 392.226C215.737 395.566 228.095 400.815 228.124 404.136C228.162 407.579 215.958 413.082 217.053 416.28C218.168 419.507 231.305 416.656 233.371 419.394C235.417 422.103 228.825 433.599 231.689 435.593C234.457 437.521 243.355 427.663 246.766 428.716C249.967 429.695 251.543 441.247 254.521 442.648V426.374C241.914 426.271 231.727 416.243 231.727 403.872Z" fill="#A6D8BA"/>
<path d="M254.714 381.276C254.646 381.276 254.589 381.276 254.521 381.276V426.449C254.589 426.449 254.646 426.449 254.714 426.449C267.456 426.449 277.786 416.337 277.786 403.863C277.786 391.389 267.456 381.276 254.714 381.276Z" fill="#A6D8BA"/>
<path d="M291.355 403.872C291.355 391.511 301.542 381.474 314.149 381.37V364.974C314.082 364.964 314.015 364.955 313.938 364.955C310.421 364.993 309.133 378.116 305.876 379.188C302.579 380.279 293.45 370.599 290.663 372.622C287.896 374.635 294.709 385.971 292.672 388.774C290.702 391.483 277.498 388.877 276.431 392.226C275.365 395.566 287.723 400.815 287.752 404.136C287.79 407.579 275.586 413.082 276.681 416.28C277.796 419.507 290.932 416.656 292.999 419.394C295.045 422.103 288.453 433.599 291.317 435.593C294.084 437.521 302.983 427.663 306.394 428.716C309.594 429.695 311.17 441.247 314.149 442.648V426.374C301.542 426.27 291.355 416.243 291.355 403.872Z" fill="#A6D8BA"/>
<path d="M314.341 381.276C314.274 381.276 314.217 381.276 314.149 381.276V426.449C314.217 426.449 314.274 426.449 314.341 426.449C327.084 426.449 337.414 416.336 337.414 403.863C337.414 391.389 327.084 381.276 314.341 381.276Z" fill="#A6D8BA"/>
<path d="M350.974 403.872C350.974 391.511 361.161 381.474 373.769 381.37V364.974C373.701 364.964 373.634 364.955 373.557 364.955C370.04 364.993 368.752 378.116 365.495 379.188C362.199 380.279 353.069 370.599 350.283 372.622C347.515 374.635 354.328 385.971 352.291 388.774C350.321 391.483 337.117 388.877 336.051 392.226C334.984 395.566 347.342 400.815 347.371 404.136C347.409 407.579 335.205 413.082 336.3 416.28C337.415 419.507 350.552 416.656 352.618 419.394C354.665 422.103 348.072 433.599 350.936 435.593C353.704 437.521 362.602 427.663 366.014 428.716C369.214 429.695 370.79 441.247 373.769 442.648V426.374C361.161 426.27 350.974 416.243 350.974 403.872Z" fill="#A6D8BA"/>
<path d="M373.961 381.276C373.893 381.276 373.836 381.276 373.768 381.276V426.449C373.836 426.449 373.893 426.449 373.961 426.449C386.703 426.449 397.033 416.336 397.033 403.863C397.033 391.389 386.703 381.276 373.961 381.276Z" fill="#A6D8BA"/>
<path d="M-6.76372 479.656C-6.76372 467.295 3.42253 457.257 16.0304 457.154V440.757C15.9631 440.748 15.8959 440.739 15.819 440.739C12.3019 440.776 11.0142 453.899 7.75649 454.971C4.46037 456.063 -4.66881 446.383 -7.45561 448.405C-10.2232 450.418 -3.40993 461.754 -5.44718 464.557C-7.41716 467.267 -20.6209 464.661 -21.6875 468.01C-22.7542 471.349 -10.3962 476.598 -10.3673 479.919C-10.3289 483.362 -22.5332 488.865 -21.4377 492.064C-20.323 495.29 -7.18654 492.44 -5.12046 495.177C-3.0736 497.887 -9.66583 509.382 -6.80215 511.376C-4.03456 513.305 4.86399 503.446 8.27542 504.5C11.4754 505.478 13.0514 517.03 16.0304 518.432V502.157C3.42253 502.054 -6.76372 492.026 -6.76372 479.656Z" fill="#A6D8BA"/>
<path d="M16.2225 457.069C16.1553 457.069 16.0976 457.069 16.0303 457.069V502.242C16.0976 502.242 16.1553 502.242 16.2225 502.242C28.9649 502.242 39.2953 492.129 39.2953 479.656C39.2953 467.182 28.9649 457.069 16.2225 457.069Z" fill="#A6D8BA"/>
<path d="M52.8533 479.656C52.8533 467.295 63.0396 457.258 75.6475 457.154V440.758C75.5802 440.748 75.5129 440.739 75.4361 440.739C71.9189 440.777 70.6312 453.899 67.3736 454.972C64.0774 456.063 54.9483 446.383 52.1615 448.406C49.3939 450.419 56.2071 461.754 54.1699 464.558C52.1999 467.267 38.9962 464.661 37.9295 468.01C36.8629 471.35 49.2209 476.599 49.2497 479.919C49.2882 483.362 37.0839 488.866 38.1794 492.064C39.2941 495.291 52.4305 492.44 54.4966 495.178C56.5435 497.887 49.9512 509.382 52.8149 511.377C55.5825 513.305 64.481 503.447 67.8925 504.5C71.0925 505.478 72.6685 517.03 75.6475 518.432V502.158C63.0396 502.054 52.8533 492.026 52.8533 479.656Z" fill="#A6D8BA"/>
<path d="M75.8494 457.069C75.7821 457.069 75.7245 457.069 75.6572 457.069V502.242C75.7245 502.242 75.7821 502.242 75.8494 502.242C88.5918 502.242 98.9222 492.13 98.9222 479.656C98.9222 467.182 88.5918 457.069 75.8494 457.069Z" fill="#A6D8BA"/>
<path d="M112.482 479.656C112.482 467.295 122.668 457.258 135.276 457.154V440.758C135.209 440.748 135.142 440.739 135.065 440.739C131.548 440.776 130.26 453.899 127.002 454.972C123.706 456.063 114.577 446.383 111.79 448.406C109.023 450.419 115.836 461.754 113.799 464.558C111.829 467.267 98.6249 464.661 97.5583 468.01C96.4916 471.35 108.85 476.599 108.878 479.919C108.917 483.362 96.7126 488.866 97.8081 492.064C98.9228 495.291 112.059 492.44 114.125 495.178C116.172 497.887 109.58 509.382 112.444 511.377C115.211 513.305 124.11 503.446 127.521 504.5C130.721 505.478 132.297 517.03 135.276 518.432V502.158C122.668 502.054 112.482 492.026 112.482 479.656Z" fill="#A6D8BA"/>
<path d="M135.468 457.07C135.401 457.07 135.343 457.07 135.276 457.07V502.243C135.343 502.243 135.401 502.243 135.468 502.243C148.211 502.243 158.541 492.13 158.541 479.656C158.541 467.183 148.211 457.07 135.468 457.07Z" fill="#A6D8BA"/>
<path d="M172.1 479.656C172.1 467.295 182.287 457.257 194.895 457.154V440.757C194.827 440.748 194.76 440.738 194.683 440.738C191.166 440.776 189.878 453.899 186.621 454.971C183.325 456.063 174.195 446.383 171.409 448.405C168.641 450.418 175.454 461.754 173.417 464.557C171.447 467.266 158.243 464.661 157.177 468.01C156.11 471.349 168.468 476.598 168.497 479.919C168.535 483.362 156.331 488.865 157.426 492.064C158.541 495.29 171.678 492.44 173.744 495.177C175.791 497.886 169.198 509.382 172.062 511.376C174.83 513.305 183.728 503.446 187.14 504.5C190.34 505.478 191.916 517.03 194.895 518.432V502.157C182.287 502.054 172.1 492.026 172.1 479.656Z" fill="#A6D8BA"/>
<path d="M195.098 457.07C195.03 457.07 194.973 457.07 194.905 457.07V502.243C194.973 502.243 195.03 502.243 195.098 502.243C207.84 502.243 218.17 492.13 218.17 479.656C218.17 467.182 207.84 457.07 195.098 457.07Z" fill="#A6D8BA"/>
<path d="M231.727 479.656C231.727 467.295 241.914 457.257 254.521 457.154V440.757C254.454 440.748 254.387 440.739 254.31 440.739C250.793 440.776 249.505 453.899 246.248 454.972C242.951 456.063 233.822 446.383 231.035 448.405C228.268 450.418 235.081 461.754 233.044 464.557C231.074 467.267 217.87 464.661 216.804 468.01C215.737 471.349 228.095 476.598 228.124 479.919C228.162 483.362 215.958 488.865 217.053 492.064C218.168 495.29 231.305 492.44 233.371 495.177C235.417 497.887 228.825 509.382 231.689 511.376C234.457 513.305 243.355 503.446 246.766 504.5C249.967 505.478 251.543 517.03 254.521 518.432V502.157C241.914 502.054 231.727 492.026 231.727 479.656Z" fill="#A6D8BA"/>
<path d="M254.714 457.069C254.646 457.069 254.589 457.069 254.521 457.069V502.242C254.589 502.242 254.646 502.242 254.714 502.242C267.456 502.242 277.786 492.129 277.786 479.656C277.786 467.182 267.456 457.069 254.714 457.069Z" fill="#A6D8BA"/>
<path d="M291.355 479.656C291.355 467.295 301.542 457.257 314.149 457.154V440.757C314.082 440.748 314.015 440.738 313.938 440.738C310.421 440.776 309.133 453.899 305.876 454.971C302.579 456.063 293.45 446.383 290.663 448.405C287.896 450.418 294.709 461.754 292.672 464.557C290.702 467.266 277.498 464.661 276.431 468.01C275.365 471.349 287.723 476.598 287.752 479.919C287.79 483.362 275.586 488.865 276.681 492.064C277.796 495.29 290.932 492.44 292.999 495.177C295.045 497.886 288.453 509.382 291.317 511.376C294.084 513.305 302.983 503.446 306.394 504.5C309.594 505.478 311.17 517.03 314.149 518.432V502.157C301.542 502.054 291.355 492.026 291.355 479.656Z" fill="#A6D8BA"/>
<path d="M314.341 457.069C314.274 457.069 314.217 457.069 314.149 457.069V502.242C314.217 502.242 314.274 502.242 314.341 502.242C327.084 502.242 337.414 492.129 337.414 479.655C337.414 467.182 327.084 457.069 314.341 457.069Z" fill="#A6D8BA"/>
<path d="M350.974 479.656C350.974 467.295 361.161 457.257 373.769 457.154V440.757C373.701 440.748 373.634 440.738 373.557 440.738C370.04 440.776 368.752 453.899 365.495 454.971C362.199 456.063 353.069 446.383 350.283 448.405C347.515 450.418 354.328 461.754 352.291 464.557C350.321 467.266 337.117 464.661 336.051 468.01C334.984 471.349 347.342 476.598 347.371 479.919C347.409 483.362 335.205 488.865 336.3 492.064C337.415 495.29 350.552 492.44 352.618 495.177C354.665 497.886 348.072 509.382 350.936 511.376C353.704 513.305 362.602 503.446 366.014 504.5C369.214 505.478 370.79 517.03 373.769 518.432V502.157C361.161 502.054 350.974 492.026 350.974 479.656Z" fill="#A6D8BA"/>
<path d="M373.961 457.07C373.893 457.07 373.836 457.07 373.768 457.07V502.243C373.836 502.243 373.893 502.243 373.961 502.243C386.703 502.243 397.033 492.13 397.033 479.656C397.033 467.182 386.703 457.07 373.961 457.07Z" fill="#A6D8BA"/>
<path d="M-6.76372 555.448C-6.76372 543.087 3.42253 533.05 16.0304 532.946V516.55C15.9631 516.54 15.8959 516.531 15.819 516.531C12.3019 516.568 11.0142 529.691 7.75649 530.764C4.46037 531.855 -4.66881 522.175 -7.45561 524.198C-10.2232 526.211 -3.40993 537.546 -5.44718 540.35C-7.41716 543.059 -20.6209 540.453 -21.6875 543.802C-22.7542 547.141 -10.3962 552.391 -10.3673 555.711C-10.3289 559.154 -22.5332 564.657 -21.4377 567.856C-20.323 571.083 -7.18654 568.232 -5.12046 570.97C-3.0736 573.679 -9.66583 585.174 -6.80215 587.169C-4.03456 589.097 4.86399 579.238 8.27542 580.292C11.4754 581.27 13.0514 592.822 16.0304 594.224V577.95C3.42253 577.846 -6.76372 567.818 -6.76372 555.448Z" fill="#A6D8BA"/>
<path d="M16.2225 532.862C16.1553 532.862 16.0976 532.862 16.0303 532.862V578.034C16.0976 578.034 16.1553 578.034 16.2225 578.034C28.9649 578.034 39.2953 567.922 39.2953 555.448C39.2953 542.974 28.9649 532.862 16.2225 532.862Z" fill="#A6D8BA"/>
<path d="M52.8533 555.448C52.8533 543.087 63.0396 533.05 75.6475 532.946V516.55C75.5802 516.54 75.5129 516.531 75.4361 516.531C71.9189 516.568 70.6312 529.691 67.3736 530.764C64.0774 531.855 54.9483 522.175 52.1615 524.198C49.3939 526.211 56.2071 537.546 54.1699 540.35C52.1999 543.059 38.9962 540.453 37.9295 543.802C36.8629 547.141 49.2209 552.391 49.2497 555.711C49.2882 559.154 37.0839 564.657 38.1794 567.856C39.2941 571.083 52.4305 568.232 54.4966 570.97C56.5435 573.679 49.9512 585.174 52.8149 587.169C55.5825 589.097 64.481 579.238 67.8925 580.292C71.0925 581.27 72.6685 592.822 75.6475 594.224V577.95C63.0396 577.846 52.8533 567.818 52.8533 555.448Z" fill="#A6D8BA"/>
<path d="M75.8494 532.861C75.7821 532.861 75.7245 532.861 75.6572 532.861V578.034C75.7245 578.034 75.7821 578.034 75.8494 578.034C88.5918 578.034 98.9222 567.922 98.9222 555.448C98.9222 542.974 88.5918 532.861 75.8494 532.861Z" fill="#A6D8BA"/>
<path d="M112.482 555.448C112.482 543.087 122.668 533.05 135.276 532.946V516.55C135.209 516.54 135.142 516.531 135.065 516.531C131.548 516.568 130.26 529.691 127.002 530.764C123.706 531.855 114.577 522.175 111.79 524.198C109.023 526.211 115.836 537.546 113.799 540.35C111.829 543.059 98.6249 540.453 97.5583 543.802C96.4916 547.141 108.85 552.391 108.878 555.711C108.917 559.154 96.7126 564.657 97.8081 567.856C98.9228 571.083 112.059 568.232 114.125 570.97C116.172 573.679 109.58 585.174 112.444 587.169C115.211 589.097 124.11 579.238 127.521 580.292C130.721 581.27 132.297 592.822 135.276 594.224V577.95C122.668 577.846 112.482 567.818 112.482 555.448Z" fill="#A6D8BA"/>
<path d="M135.468 532.862C135.401 532.862 135.343 532.862 135.276 532.862V578.035C135.343 578.035 135.401 578.035 135.468 578.035C148.211 578.035 158.541 567.923 158.541 555.449C158.541 542.975 148.211 532.862 135.468 532.862Z" fill="#A6D8BA"/>
<path d="M172.1 555.448C172.1 543.087 182.287 533.05 194.895 532.946V516.55C194.827 516.54 194.76 516.531 194.683 516.531C191.166 516.568 189.878 529.691 186.621 530.764C183.325 531.855 174.195 522.175 171.409 524.198C168.641 526.211 175.454 537.546 173.417 540.35C171.447 543.059 158.243 540.453 157.177 543.802C156.11 547.141 168.468 552.391 168.497 555.711C168.535 559.154 156.331 564.657 157.426 567.856C158.541 571.083 171.678 568.232 173.744 570.97C175.791 573.679 169.198 585.174 172.062 587.169C174.83 589.097 183.728 579.238 187.14 580.292C190.34 581.27 191.916 592.822 194.895 594.224V577.95C182.287 577.846 172.1 567.818 172.1 555.448Z" fill="#A6D8BA"/>
<path d="M195.098 532.862C195.03 532.862 194.973 532.862 194.905 532.862V578.035C194.973 578.035 195.03 578.035 195.098 578.035C207.84 578.035 218.17 567.922 218.17 555.448C218.17 542.975 207.84 532.862 195.098 532.862Z" fill="#A6D8BA"/>
<path d="M231.727 555.448C231.727 543.087 241.914 533.05 254.521 532.946V516.55C254.454 516.54 254.387 516.531 254.31 516.531C250.793 516.569 249.505 529.692 246.248 530.764C242.951 531.855 233.822 522.175 231.035 524.198C228.268 526.211 235.081 537.546 233.044 540.35C231.074 543.059 217.87 540.453 216.804 543.802C215.737 547.142 228.095 552.391 228.124 555.712C228.162 559.155 215.958 564.658 217.053 567.856C218.168 571.083 231.305 568.232 233.371 570.97C235.417 573.679 228.825 585.175 231.689 587.169C234.457 589.097 243.355 579.239 246.766 580.292C249.967 581.271 251.543 592.823 254.521 594.224V577.95C241.914 577.846 231.727 567.819 231.727 555.448Z" fill="#A6D8BA"/>
<path d="M254.714 532.862C254.646 532.862 254.589 532.862 254.521 532.862V578.034C254.589 578.034 254.646 578.034 254.714 578.034C267.456 578.034 277.786 567.922 277.786 555.448C277.786 542.974 267.456 532.862 254.714 532.862Z" fill="#A6D8BA"/>
<path d="M291.355 555.448C291.355 543.087 301.542 533.05 314.149 532.946V516.55C314.082 516.54 314.015 516.531 313.938 516.531C310.421 516.568 309.133 529.691 305.876 530.764C302.579 531.855 293.45 522.175 290.663 524.198C287.896 526.211 294.709 537.546 292.672 540.35C290.702 543.059 277.498 540.453 276.431 543.802C275.365 547.141 287.723 552.391 287.752 555.711C287.79 559.154 275.586 564.657 276.681 567.856C277.796 571.083 290.932 568.232 292.999 570.97C295.045 573.679 288.453 585.174 291.317 587.169C294.084 589.097 302.983 579.238 306.394 580.292C309.594 581.27 311.17 592.822 314.149 594.224V577.95C301.542 577.846 291.355 567.818 291.355 555.448Z" fill="#A6D8BA"/>
<path d="M314.341 532.861C314.274 532.861 314.217 532.861 314.149 532.861V578.034C314.217 578.034 314.274 578.034 314.341 578.034C327.084 578.034 337.414 567.921 337.414 555.448C337.414 542.974 327.084 532.861 314.341 532.861Z" fill="#A6D8BA"/>
<path d="M350.974 555.448C350.974 543.087 361.161 533.05 373.769 532.946V516.55C373.701 516.54 373.634 516.531 373.557 516.531C370.04 516.568 368.752 529.691 365.495 530.764C362.199 531.855 353.069 522.175 350.283 524.198C347.515 526.211 354.328 537.546 352.291 540.35C350.321 543.059 337.117 540.453 336.051 543.802C334.984 547.141 347.342 552.391 347.371 555.711C347.409 559.154 335.205 564.657 336.3 567.856C337.415 571.083 350.552 568.232 352.618 570.97C354.665 573.679 348.072 585.174 350.936 587.169C353.704 589.097 362.602 579.238 366.014 580.292C369.214 581.27 370.79 592.822 373.769 594.224V577.95C361.161 577.846 350.974 567.818 350.974 555.448Z" fill="#A6D8BA"/>
<path d="M373.961 532.862C373.893 532.862 373.836 532.862 373.768 532.862V578.035C373.836 578.035 373.893 578.035 373.961 578.035C386.703 578.035 397.033 567.922 397.033 555.448C397.033 542.975 386.703 532.862 373.961 532.862Z" fill="#A6D8BA"/>
<path d="M-6.76372 631.241C-6.76372 618.881 3.42253 608.843 16.0304 608.74V592.343C15.9631 592.334 15.8959 592.324 15.819 592.324C12.3019 592.362 11.0142 605.485 7.75649 606.557C4.46037 607.649 -4.66881 597.969 -7.45561 599.991C-10.2232 602.004 -3.40993 613.34 -5.44718 616.143C-7.41716 618.852 -20.6209 616.247 -21.6875 619.596C-22.7542 622.935 -10.3962 628.184 -10.3673 631.505C-10.3289 634.948 -22.5332 640.451 -21.4377 643.649C-20.323 646.876 -7.18654 644.026 -5.12046 646.763C-3.0736 649.472 -9.66583 660.968 -6.80215 662.962C-4.03456 664.891 4.86399 655.032 8.27542 656.086C11.4754 657.064 13.0514 668.616 16.0304 670.018V653.743C3.42253 653.64 -6.76372 643.612 -6.76372 631.241Z" fill="#A6D8BA"/>
<path d="M16.2225 608.655C16.1553 608.655 16.0976 608.655 16.0303 608.655V653.828C16.0976 653.828 16.1553 653.828 16.2225 653.828C28.9649 653.828 39.2953 643.715 39.2953 631.241C39.2953 618.768 28.9649 608.655 16.2225 608.655Z" fill="#A6D8BA"/>
<path d="M52.8533 631.241C52.8533 618.88 63.0396 608.843 75.6475 608.74V592.343C75.5802 592.334 75.5129 592.324 75.4361 592.324C71.9189 592.362 70.6312 605.485 67.3736 606.557C64.0774 607.648 54.9483 597.969 52.1615 599.991C49.3939 602.004 56.2071 613.34 54.1699 616.143C52.1999 618.852 38.9962 616.247 37.9295 619.595C36.8629 622.935 49.2209 628.184 49.2497 631.505C49.2882 634.948 37.0839 640.451 38.1794 643.649C39.2941 646.876 52.4305 644.026 54.4966 646.763C56.5435 649.472 49.9512 660.968 52.8149 662.962C55.5825 664.891 64.481 655.032 67.8925 656.086C71.0925 657.064 72.6685 668.616 75.6475 670.017V653.743C63.0396 653.64 52.8533 643.612 52.8533 631.241Z" fill="#A6D8BA"/>
<path d="M75.8494 608.655C75.7821 608.655 75.7245 608.655 75.6572 608.655V653.828C75.7245 653.828 75.7821 653.828 75.8494 653.828C88.5918 653.828 98.9222 643.715 98.9222 631.241C98.9222 618.767 88.5918 608.655 75.8494 608.655Z" fill="#A6D8BA"/>
<path d="M112.482 631.241C112.482 618.881 122.668 608.843 135.276 608.74V592.343C135.209 592.334 135.142 592.324 135.065 592.324C131.548 592.362 130.26 605.485 127.002 606.557C123.706 607.649 114.577 597.969 111.79 599.991C109.023 602.004 115.836 613.34 113.799 616.143C111.829 618.852 98.6249 616.247 97.5583 619.596C96.4916 622.935 108.85 628.184 108.878 631.505C108.917 634.948 96.7126 640.451 97.8081 643.649C98.9228 646.876 112.059 644.026 114.125 646.763C116.172 649.472 109.58 660.968 112.444 662.962C115.211 664.891 124.11 655.032 127.521 656.086C130.721 657.064 132.297 668.616 135.276 670.018V653.743C122.668 653.64 112.482 643.612 112.482 631.241Z" fill="#A6D8BA"/>
<path d="M135.468 608.655C135.401 608.655 135.343 608.655 135.276 608.655V653.828C135.343 653.828 135.401 653.828 135.468 653.828C148.211 653.828 158.541 643.715 158.541 631.241C158.541 618.768 148.211 608.655 135.468 608.655Z" fill="#A6D8BA"/>
<path d="M172.1 631.241C172.1 618.88 182.287 608.843 194.895 608.74V592.343C194.827 592.334 194.76 592.324 194.683 592.324C191.166 592.362 189.878 605.485 186.621 606.557C183.325 607.648 174.195 597.969 171.409 599.991C168.641 602.004 175.454 613.34 173.417 616.143C171.447 618.852 158.243 616.247 157.177 619.595C156.11 622.935 168.468 628.184 168.497 631.505C168.535 634.948 156.331 640.451 157.426 643.649C158.541 646.876 171.678 644.026 173.744 646.763C175.791 649.472 169.198 660.968 172.062 662.962C174.83 664.891 183.728 655.032 187.14 656.086C190.34 657.064 191.916 668.616 194.895 670.017V653.743C182.287 653.64 172.1 643.612 172.1 631.241Z" fill="#A6D8BA"/>
<path d="M195.098 608.655C195.03 608.655 194.973 608.655 194.905 608.655V653.828C194.973 653.828 195.03 653.828 195.098 653.828C207.84 653.828 218.17 643.715 218.17 631.241C218.17 618.767 207.84 608.655 195.098 608.655Z" fill="#A6D8BA"/>
<path d="M231.727 631.242C231.727 618.881 241.914 608.843 254.521 608.74V592.343C254.454 592.334 254.387 592.324 254.31 592.324C250.793 592.362 249.505 605.485 246.248 606.557C242.951 607.649 233.822 597.969 231.035 599.991C228.268 602.004 235.081 613.34 233.044 616.143C231.074 618.852 217.87 616.247 216.804 619.596C215.737 622.935 228.095 628.184 228.124 631.505C228.162 634.948 215.958 640.451 217.053 643.65C218.168 646.876 231.305 644.026 233.371 646.763C235.417 649.473 228.825 660.968 231.689 662.962C234.457 664.891 243.355 655.032 246.766 656.086C249.967 657.064 251.543 668.616 254.521 670.018V653.743C241.914 653.64 231.727 643.612 231.727 631.242Z" fill="#A6D8BA"/>
<path d="M254.714 608.655C254.646 608.655 254.589 608.655 254.521 608.655V653.828C254.589 653.828 254.646 653.828 254.714 653.828C267.456 653.828 277.786 643.715 277.786 631.241C277.786 618.768 267.456 608.655 254.714 608.655Z" fill="#A6D8BA"/>
<path d="M291.355 631.241C291.355 618.88 301.542 608.843 314.149 608.74V592.343C314.082 592.334 314.015 592.324 313.938 592.324C310.421 592.362 309.133 605.485 305.876 606.557C302.579 607.648 293.45 597.969 290.663 599.991C287.896 602.004 294.709 613.34 292.672 616.143C290.702 618.852 277.498 616.247 276.431 619.595C275.365 622.935 287.723 628.184 287.752 631.505C287.79 634.948 275.586 640.451 276.681 643.649C277.796 646.876 290.932 644.026 292.999 646.763C295.045 649.472 288.453 660.968 291.317 662.962C294.084 664.891 302.983 655.032 306.394 656.086C309.594 657.064 311.17 668.616 314.149 670.017V653.743C301.542 653.64 291.355 643.612 291.355 631.241Z" fill="#A6D8BA"/>
<path d="M314.341 608.655C314.274 608.655 314.217 608.655 314.149 608.655V653.828C314.217 653.828 314.274 653.828 314.341 653.828C327.084 653.828 337.414 643.715 337.414 631.241C337.414 618.767 327.084 608.655 314.341 608.655Z" fill="#A6D8BA"/>
<path d="M350.974 631.241C350.974 618.88 361.161 608.843 373.769 608.74V592.343C373.701 592.334 373.634 592.324 373.557 592.324C370.04 592.362 368.752 605.485 365.495 606.557C362.199 607.648 353.069 597.969 350.283 599.991C347.515 602.004 354.328 613.34 352.291 616.143C350.321 618.852 337.117 616.247 336.051 619.595C334.984 622.935 347.342 628.184 347.371 631.505C347.409 634.948 335.205 640.451 336.3 643.649C337.415 646.876 350.552 644.026 352.618 646.763C354.665 649.472 348.072 660.968 350.936 662.962C353.704 664.891 362.602 655.032 366.014 656.086C369.214 657.064 370.79 668.616 373.769 670.017V653.743C361.161 653.64 350.974 643.612 350.974 631.241Z" fill="#A6D8BA"/>
<path d="M373.961 608.655C373.893 608.655 373.836 608.655 373.768 608.655V653.828C373.836 653.828 373.893 653.828 373.961 653.828C386.703 653.828 397.033 643.715 397.033 631.241C397.033 618.767 386.703 608.655 373.961 608.655Z" fill="#A6D8BA"/>
<path d="M-6.76372 690.224C-6.76372 677.863 3.42253 667.826 16.0304 667.722V651.326C15.9631 651.316 15.8959 651.307 15.819 651.307C12.3019 651.344 11.0142 664.467 7.75649 665.54C4.46037 666.631 -4.66881 656.951 -7.45561 658.974C-10.2232 660.987 -3.40993 672.322 -5.44718 675.126C-7.41716 677.835 -20.6209 675.229 -21.6875 678.578C-22.7542 681.917 -10.3962 687.167 -10.3673 690.487C-10.3289 693.93 -22.5332 699.433 -21.4377 702.632C-20.323 705.858 -7.18654 703.008 -5.12046 705.746C-3.0736 708.455 -9.66583 719.95 -6.80215 721.945C-4.03456 723.873 4.86399 714.014 8.27542 715.068C11.4754 716.046 13.0514 727.598 16.0304 729V712.726C3.42253 712.622 -6.76372 702.594 -6.76372 690.224Z" fill="#A6D8BA"/>
<path d="M16.2225 667.628C16.1553 667.628 16.0976 667.628 16.0303 667.628V712.801C16.0976 712.801 16.1553 712.801 16.2225 712.801C28.9649 712.801 39.2953 702.688 39.2953 690.214C39.2953 677.741 28.9649 667.628 16.2225 667.628Z" fill="#A6D8BA"/>
<path d="M52.8533 690.224C52.8533 677.863 63.0396 667.826 75.6475 667.722V651.326C75.5802 651.316 75.5129 651.307 75.4361 651.307C71.9189 651.344 70.6312 664.467 67.3736 665.54C64.0774 666.631 54.9483 656.951 52.1615 658.974C49.3939 660.987 56.2071 672.322 54.1699 675.125C52.1999 677.835 38.9962 675.229 37.9295 678.578C36.8629 681.917 49.2209 687.167 49.2497 690.487C49.2882 693.93 37.0839 699.433 38.1794 702.632C39.2941 705.858 52.4305 703.008 54.4966 705.746C56.5435 708.455 49.9512 719.95 52.8149 721.945C55.5825 723.873 64.481 714.014 67.8925 715.068C71.0925 716.046 72.6685 727.598 75.6475 729V712.726C63.0396 712.622 52.8533 702.594 52.8533 690.224Z" fill="#A6D8BA"/>
<path d="M75.8494 667.628C75.7821 667.628 75.7245 667.628 75.6572 667.628V712.801C75.7245 712.801 75.7821 712.801 75.8494 712.801C88.5918 712.801 98.9222 702.689 98.9222 690.215C98.9222 677.741 88.5918 667.628 75.8494 667.628Z" fill="#A6D8BA"/>
<path d="M112.482 690.224C112.482 677.863 122.668 667.826 135.276 667.722V651.326C135.209 651.316 135.142 651.307 135.065 651.307C131.548 651.344 130.26 664.467 127.002 665.54C123.706 666.631 114.577 656.951 111.79 658.974C109.023 660.987 115.836 672.322 113.799 675.126C111.829 677.835 98.6249 675.229 97.5583 678.578C96.4916 681.917 108.85 687.167 108.878 690.487C108.917 693.93 96.7126 699.433 97.8081 702.632C98.9228 705.858 112.059 703.008 114.125 705.746C116.172 708.455 109.58 719.95 112.444 721.945C115.211 723.873 124.11 714.014 127.521 715.068C130.721 716.046 132.297 727.598 135.276 729V712.726C122.668 712.622 112.482 702.594 112.482 690.224Z" fill="#A6D8BA"/>
<path d="M135.468 667.629C135.401 667.629 135.343 667.629 135.276 667.629V712.801C135.343 712.801 135.401 712.801 135.468 712.801C148.211 712.801 158.541 702.689 158.541 690.215C158.541 677.741 148.211 667.629 135.468 667.629Z" fill="#A6D8BA"/>
<path d="M172.1 690.224C172.1 677.863 182.287 667.826 194.895 667.722V651.326C194.827 651.316 194.76 651.307 194.683 651.307C191.166 651.344 189.878 664.467 186.621 665.54C183.325 666.631 174.195 656.951 171.409 658.974C168.641 660.987 175.454 672.322 173.417 675.125C171.447 677.835 158.243 675.229 157.177 678.578C156.11 681.917 168.468 687.167 168.497 690.487C168.535 693.93 156.331 699.433 157.426 702.632C158.541 705.858 171.678 703.008 173.744 705.746C175.791 708.455 169.198 719.95 172.062 721.945C174.83 723.873 183.728 714.014 187.14 715.068C190.34 716.046 191.916 727.598 194.895 729V712.726C182.287 712.622 172.1 702.594 172.1 690.224Z" fill="#A6D8BA"/>
<path d="M195.098 667.628C195.03 667.628 194.973 667.628 194.905 667.628V712.801C194.973 712.801 195.03 712.801 195.098 712.801C207.84 712.801 218.17 702.688 218.17 690.214C218.17 677.74 207.84 667.628 195.098 667.628Z" fill="#A6D8BA"/>
<path d="M231.727 690.224C231.727 677.863 241.914 667.826 254.521 667.722V651.326C254.454 651.316 254.387 651.307 254.31 651.307C250.793 651.344 249.505 664.467 246.248 665.54C242.951 666.631 233.822 656.951 231.035 658.974C228.268 660.987 235.081 672.322 233.044 675.126C231.074 677.835 217.87 675.229 216.804 678.578C215.737 681.917 228.095 687.167 228.124 690.487C228.162 693.93 215.958 699.433 217.053 702.632C218.168 705.859 231.305 703.008 233.371 705.746C235.417 708.455 228.825 719.95 231.689 721.945C234.457 723.873 243.355 714.014 246.766 715.068C249.967 716.046 251.543 727.598 254.521 729V712.726C241.914 712.622 231.727 702.594 231.727 690.224Z" fill="#A6D8BA"/>
<path d="M254.714 667.628C254.646 667.628 254.589 667.628 254.521 667.628V712.801C254.589 712.801 254.646 712.801 254.714 712.801C267.456 712.801 277.786 702.688 277.786 690.214C277.786 677.741 267.456 667.628 254.714 667.628Z" fill="#A6D8BA"/>
<path d="M291.355 690.224C291.355 677.863 301.542 667.826 314.149 667.722V651.326C314.082 651.316 314.015 651.307 313.938 651.307C310.421 651.344 309.133 664.467 305.876 665.54C302.579 666.631 293.45 656.951 290.663 658.974C287.896 660.987 294.709 672.322 292.672 675.125C290.702 677.835 277.498 675.229 276.431 678.578C275.365 681.917 287.723 687.167 287.752 690.487C287.79 693.93 275.586 699.433 276.681 702.632C277.796 705.858 290.932 703.008 292.999 705.746C295.045 708.455 288.453 719.95 291.317 721.945C294.084 723.873 302.983 714.014 306.394 715.068C309.594 716.046 311.17 727.598 314.149 729V712.726C301.542 712.622 291.355 702.594 291.355 690.224Z" fill="#A6D8BA"/>
<path d="M314.341 667.628C314.274 667.628 314.217 667.628 314.149 667.628V712.801C314.217 712.801 314.274 712.801 314.341 712.801C327.084 712.801 337.414 702.688 337.414 690.214C337.414 677.74 327.084 667.628 314.341 667.628Z" fill="#A6D8BA"/>
<path d="M350.974 690.224C350.974 677.863 361.161 667.826 373.769 667.722V651.326C373.701 651.316 373.634 651.307 373.557 651.307C370.04 651.344 368.752 664.467 365.495 665.54C362.199 666.631 353.069 656.951 350.283 658.974C347.515 660.987 354.328 672.322 352.291 675.125C350.321 677.835 337.117 675.229 336.051 678.578C334.984 681.917 347.342 687.167 347.371 690.487C347.409 693.93 335.205 699.433 336.3 702.632C337.415 705.858 350.552 703.008 352.618 705.746C354.665 708.455 348.072 719.95 350.936 721.945C353.704 723.873 362.602 714.014 366.014 715.068C369.214 716.046 370.79 727.598 373.769 729V712.726C361.161 712.622 350.974 702.594 350.974 690.224Z" fill="#A6D8BA"/>
<path d="M373.961 667.628C373.893 667.628 373.836 667.628 373.768 667.628V712.801C373.836 712.801 373.893 712.801 373.961 712.801C386.703 712.801 397.033 702.688 397.033 690.214C397.033 677.74 386.703 667.628 373.961 667.628Z" fill="#A6D8BA"/>
</g>
</g>
<defs>
<clipPath id="clip0_4075_8685">
<rect width="375" height="716" rx="24" fill="white"/>
</clipPath>
</defs>
</svg>
