<svg width="220" height="28" viewBox="0 0 220 28" fill="none" xmlns="http://www.w3.org/2000/svg">
<path d="M19.0714 6.534C19.4088 6.534 19.7314 6.666 20.0394 6.93C20.3474 7.17933 20.5014 7.524 20.5014 7.964C20.5014 8.096 20.4794 8.24267 20.4354 8.404L16.1014 21.164C16.0134 21.428 15.8521 21.6333 15.6174 21.78C15.3974 21.912 15.1628 21.9853 14.9134 22C14.6641 22 14.4148 21.9267 14.1654 21.78C13.9308 21.6333 13.7474 21.4207 13.6154 21.142L10.3594 13.75L10.5574 13.882L7.34542 21.142C7.21342 21.4207 7.02276 21.6333 6.77342 21.78C6.53876 21.9267 6.29676 22 6.04742 22C5.81276 21.9853 5.57809 21.912 5.34342 21.78C5.10876 21.6333 4.94742 21.428 4.85942 21.164L0.525422 8.404C0.481422 8.24267 0.459422 8.096 0.459422 7.964C0.459422 7.524 0.613422 7.17933 0.921422 6.93C1.24409 6.666 1.57409 6.534 1.91142 6.534C2.19009 6.534 2.44676 6.60733 2.68142 6.754C2.93076 6.90067 3.09942 7.11333 3.18742 7.392L6.68542 17.996L6.20142 17.974L9.32542 10.472C9.44276 10.208 9.61142 10.0027 9.83142 9.856C10.0514 9.69467 10.3008 9.62133 10.5794 9.636C10.8581 9.62133 11.1074 9.69467 11.3274 9.856C11.5474 10.0027 11.7088 10.208 11.8114 10.472L14.6714 17.644L14.3194 17.864L17.7734 7.392C17.8614 7.11333 18.0301 6.90067 18.2794 6.754C18.5288 6.60733 18.7928 6.534 19.0714 6.534ZM27.5131 22.22C26.2664 22.22 25.1811 21.9633 24.2571 21.45C23.3477 20.922 22.6437 20.2107 22.1451 19.316C21.6611 18.4213 21.4191 17.4093 21.4191 16.28C21.4191 14.96 21.6831 13.838 22.2111 12.914C22.7537 11.9753 23.4577 11.2567 24.3231 10.758C25.1884 10.2593 26.1051 10.01 27.0731 10.01C27.8211 10.01 28.5251 10.164 29.1851 10.472C29.8597 10.78 30.4537 11.2053 30.9671 11.748C31.4804 12.276 31.8837 12.892 32.1771 13.596C32.4851 14.3 32.6391 15.048 32.6391 15.84C32.6244 16.192 32.4851 16.478 32.2211 16.698C31.9571 16.918 31.6491 17.028 31.2971 17.028H22.8931L22.2331 14.828H30.3071L29.8231 15.268V14.674C29.7937 14.2487 29.6397 13.8673 29.3611 13.53C29.0971 13.1927 28.7597 12.9287 28.3491 12.738C27.9531 12.5327 27.5277 12.43 27.0731 12.43C26.6331 12.43 26.2224 12.4887 25.8411 12.606C25.4597 12.7233 25.1297 12.9213 24.8511 13.2C24.5724 13.4787 24.3524 13.8527 24.1911 14.322C24.0297 14.7913 23.9491 15.3853 23.9491 16.104C23.9491 16.896 24.1104 17.5707 24.4331 18.128C24.7704 18.6707 25.1957 19.0887 25.7091 19.382C26.2371 19.6607 26.7944 19.8 27.3811 19.8C27.9237 19.8 28.3564 19.756 28.6791 19.668C29.0017 19.58 29.2584 19.4773 29.4491 19.36C29.6544 19.228 29.8377 19.118 29.9991 19.03C30.2631 18.898 30.5124 18.832 30.7471 18.832C31.0697 18.832 31.3337 18.942 31.5391 19.162C31.7591 19.382 31.8691 19.6387 31.8691 19.932C31.8691 20.328 31.6637 20.6873 31.2531 21.01C30.8717 21.3327 30.3364 21.6187 29.6471 21.868C28.9577 22.1027 28.2464 22.22 27.5131 22.22ZM37.8056 20.658C37.8056 21.0393 37.6736 21.362 37.4096 21.626C37.1603 21.8753 36.845 22 36.4636 22C36.097 22 35.789 21.8753 35.5396 21.626C35.2903 21.362 35.1656 21.0393 35.1656 20.658V7.062C35.1656 6.68067 35.2903 6.36533 35.5396 6.116C35.8036 5.852 36.1263 5.72 36.5076 5.72C36.889 5.72 37.197 5.852 37.4316 6.116C37.681 6.36533 37.8056 6.68067 37.8056 7.062V20.658ZM45.8965 10.01C46.7325 10.01 47.4585 10.098 48.0745 10.274C48.7051 10.45 49.1891 10.6993 49.5265 11.022C49.8785 11.33 50.0545 11.704 50.0545 12.144C50.0545 12.4373 49.9665 12.716 49.7905 12.98C49.6145 13.2293 49.3578 13.354 49.0205 13.354C48.7858 13.354 48.5878 13.3247 48.4265 13.266C48.2798 13.1927 48.1478 13.1047 48.0305 13.002C47.9131 12.8993 47.7738 12.804 47.6125 12.716C47.4658 12.628 47.2385 12.562 46.9305 12.518C46.6371 12.4593 46.4171 12.43 46.2705 12.43C45.5225 12.43 44.8845 12.5913 44.3565 12.914C43.8431 13.2367 43.4471 13.6767 43.1685 14.234C42.8898 14.7767 42.7505 15.4073 42.7505 16.126C42.7505 16.83 42.8898 17.4607 43.1685 18.018C43.4618 18.5607 43.8578 18.9933 44.3565 19.316C44.8698 19.6387 45.4565 19.8 46.1165 19.8C46.4831 19.8 46.7985 19.778 47.0625 19.734C47.3265 19.69 47.5465 19.624 47.7225 19.536C47.9278 19.4187 48.1111 19.294 48.2725 19.162C48.4338 19.03 48.6758 18.964 48.9985 18.964C49.3798 18.964 49.6731 19.0887 49.8785 19.338C50.0838 19.5727 50.1865 19.866 50.1865 20.218C50.1865 20.5847 49.9811 20.922 49.5705 21.23C49.1598 21.5233 48.6171 21.7653 47.9425 21.956C47.2825 22.132 46.5638 22.22 45.7865 22.22C44.6278 22.22 43.6231 21.956 42.7725 21.428C41.9218 20.8853 41.2618 20.152 40.7925 19.228C40.3378 18.304 40.1105 17.27 40.1105 16.126C40.1105 14.9233 40.3525 13.8673 40.8365 12.958C41.3351 12.034 42.0171 11.3153 42.8825 10.802C43.7625 10.274 44.7671 10.01 45.8965 10.01ZM63.5082 16.126C63.5082 17.3287 63.2368 18.392 62.6942 19.316C62.1662 20.2253 61.4475 20.9367 60.5382 21.45C59.6435 21.9633 58.6388 22.22 57.5242 22.22C56.4095 22.22 55.3975 21.9633 54.4882 21.45C53.5935 20.9367 52.8748 20.2253 52.3322 19.316C51.8042 18.392 51.5402 17.3287 51.5402 16.126C51.5402 14.9233 51.8042 13.8673 52.3322 12.958C52.8748 12.034 53.5935 11.3153 54.4882 10.802C55.3975 10.274 56.4095 10.01 57.5242 10.01C58.6388 10.01 59.6435 10.274 60.5382 10.802C61.4475 11.3153 62.1662 12.034 62.6942 12.958C63.2368 13.8673 63.5082 14.9233 63.5082 16.126ZM60.8682 16.126C60.8682 15.378 60.7142 14.7327 60.4062 14.19C60.1128 13.6327 59.7095 13.2 59.1962 12.892C58.6975 12.584 58.1402 12.43 57.5242 12.43C56.9082 12.43 56.3435 12.584 55.8302 12.892C55.3315 13.2 54.9282 13.6327 54.6202 14.19C54.3268 14.7327 54.1802 15.378 54.1802 16.126C54.1802 16.8593 54.3268 17.5047 54.6202 18.062C54.9282 18.6047 55.3315 19.03 55.8302 19.338C56.3435 19.646 56.9082 19.8 57.5242 19.8C58.1402 19.8 58.6975 19.646 59.1962 19.338C59.7095 19.03 60.1128 18.6047 60.4062 18.062C60.7142 17.5047 60.8682 16.8593 60.8682 16.126ZM72.0007 10.01C73.174 10.01 74.0393 10.296 74.5967 10.868C75.154 11.4253 75.5207 12.1513 75.6967 13.046L75.3227 12.848L75.4987 12.496C75.6747 12.1587 75.946 11.7993 76.3127 11.418C76.6793 11.022 77.1193 10.692 77.6327 10.428C78.1607 10.1493 78.7473 10.01 79.3927 10.01C80.4487 10.01 81.248 10.2373 81.7907 10.692C82.348 11.1467 82.7293 11.7553 82.9347 12.518C83.14 13.266 83.2427 14.102 83.2427 15.026V20.658C83.2427 21.0393 83.118 21.362 82.8687 21.626C82.6193 21.8753 82.304 22 81.9227 22C81.5413 22 81.226 21.8753 80.9767 21.626C80.7273 21.362 80.6027 21.0393 80.6027 20.658V15.026C80.6027 14.542 80.544 14.1093 80.4267 13.728C80.3093 13.332 80.0967 13.0167 79.7887 12.782C79.4807 12.5473 79.0407 12.43 78.4687 12.43C77.9113 12.43 77.4347 12.5473 77.0387 12.782C76.6427 13.0167 76.342 13.332 76.1367 13.728C75.946 14.1093 75.8507 14.542 75.8507 15.026V20.658C75.8507 21.0393 75.726 21.362 75.4767 21.626C75.2273 21.8753 74.912 22 74.5307 22C74.1493 22 73.834 21.8753 73.5847 21.626C73.3353 21.362 73.2107 21.0393 73.2107 20.658V15.026C73.2107 14.542 73.152 14.1093 73.0347 13.728C72.9173 13.332 72.7047 13.0167 72.3967 12.782C72.0887 12.5473 71.6487 12.43 71.0767 12.43C70.5193 12.43 70.0427 12.5473 69.6467 12.782C69.2507 13.0167 68.95 13.332 68.7447 13.728C68.554 14.1093 68.4587 14.542 68.4587 15.026V20.658C68.4587 21.0393 68.334 21.362 68.0847 21.626C67.8353 21.8753 67.52 22 67.1387 22C66.7573 22 66.442 21.8753 66.1927 21.626C65.9433 21.362 65.8187 21.0393 65.8187 20.658V11.572C65.8187 11.1907 65.9433 10.8753 66.1927 10.626C66.442 10.362 66.7573 10.23 67.1387 10.23C67.52 10.23 67.8353 10.362 68.0847 10.626C68.334 10.8753 68.4587 11.1907 68.4587 11.572V12.518L68.1287 12.452C68.2607 12.2027 68.444 11.9387 68.6787 11.66C68.9133 11.3667 69.1993 11.0953 69.5367 10.846C69.874 10.5967 70.248 10.3987 70.6587 10.252C71.0693 10.0907 71.5167 10.01 72.0007 10.01ZM91.6439 22.22C90.3973 22.22 89.3119 21.9633 88.3879 21.45C87.4786 20.922 86.7746 20.2107 86.2759 19.316C85.7919 18.4213 85.5499 17.4093 85.5499 16.28C85.5499 14.96 85.8139 13.838 86.3419 12.914C86.8846 11.9753 87.5886 11.2567 88.4539 10.758C89.3193 10.2593 90.2359 10.01 91.2039 10.01C91.9519 10.01 92.6559 10.164 93.3159 10.472C93.9906 10.78 94.5846 11.2053 95.0979 11.748C95.6113 12.276 96.0146 12.892 96.3079 13.596C96.6159 14.3 96.7699 15.048 96.7699 15.84C96.7553 16.192 96.6159 16.478 96.3519 16.698C96.0879 16.918 95.7799 17.028 95.4279 17.028H87.0239L86.3639 14.828H94.4379L93.9539 15.268V14.674C93.9246 14.2487 93.7706 13.8673 93.4919 13.53C93.2279 13.1927 92.8906 12.9287 92.4799 12.738C92.0839 12.5327 91.6586 12.43 91.2039 12.43C90.7639 12.43 90.3533 12.4887 89.9719 12.606C89.5906 12.7233 89.2606 12.9213 88.9819 13.2C88.7033 13.4787 88.4833 13.8527 88.3219 14.322C88.1606 14.7913 88.0799 15.3853 88.0799 16.104C88.0799 16.896 88.2413 17.5707 88.5639 18.128C88.9013 18.6707 89.3266 19.0887 89.8399 19.382C90.3679 19.6607 90.9253 19.8 91.5119 19.8C92.0546 19.8 92.4873 19.756 92.8099 19.668C93.1326 19.58 93.3893 19.4773 93.5799 19.36C93.7853 19.228 93.9686 19.118 94.1299 19.03C94.3939 18.898 94.6433 18.832 94.8779 18.832C95.2006 18.832 95.4646 18.942 95.6699 19.162C95.8899 19.382 95.9999 19.6387 95.9999 19.932C95.9999 20.328 95.7946 20.6873 95.3839 21.01C95.0026 21.3327 94.4673 21.6187 93.7779 21.868C93.0886 22.1027 92.3773 22.22 91.6439 22.22ZM112.349 6.6C113.757 6.6 114.805 6.93 115.495 7.59C116.184 8.25 116.529 9.22533 116.529 10.516C116.529 11.2053 116.36 11.814 116.023 12.342C115.685 12.8553 115.187 13.2587 114.527 13.552C113.867 13.8307 113.053 13.97 112.085 13.97L112.173 12.98C112.627 12.98 113.148 13.046 113.735 13.178C114.321 13.2953 114.886 13.5153 115.428 13.838C115.986 14.146 116.441 14.586 116.793 15.158C117.159 15.7153 117.343 16.434 117.343 17.314C117.343 18.282 117.181 19.074 116.859 19.69C116.551 20.306 116.14 20.7827 115.627 21.12C115.113 21.4573 114.563 21.692 113.977 21.824C113.39 21.9413 112.825 22 112.283 22H106.805C106.423 22 106.101 21.8753 105.837 21.626C105.587 21.362 105.463 21.0393 105.463 20.658V7.942C105.463 7.56067 105.587 7.24533 105.837 6.996C106.101 6.732 106.423 6.6 106.805 6.6H112.349ZM111.953 9.196H108.037L108.323 8.844V12.826L108.059 12.628H112.019C112.444 12.628 112.825 12.4887 113.163 12.21C113.5 11.9313 113.669 11.528 113.669 11C113.669 10.3693 113.507 9.91467 113.185 9.636C112.877 9.34267 112.466 9.196 111.953 9.196ZM112.129 15.224H108.125L108.323 15.048V19.69L108.103 19.47H112.283C112.957 19.47 113.493 19.294 113.889 18.942C114.285 18.5753 114.483 18.0327 114.483 17.314C114.483 16.654 114.351 16.1773 114.087 15.884C113.823 15.5907 113.507 15.4073 113.141 15.334C112.774 15.2607 112.437 15.224 112.129 15.224ZM129.295 10.01C129.676 10.01 129.991 10.1347 130.241 10.384C130.49 10.6333 130.615 10.956 130.615 11.352V20.658C130.615 21.0393 130.49 21.362 130.241 21.626C129.991 21.8753 129.676 22 129.295 22C128.913 22 128.598 21.8753 128.349 21.626C128.099 21.362 127.975 21.0393 127.975 20.658V19.58L128.459 19.778C128.459 19.9687 128.356 20.2033 128.151 20.482C127.945 20.746 127.667 21.01 127.315 21.274C126.963 21.538 126.545 21.7653 126.061 21.956C125.591 22.132 125.078 22.22 124.521 22.22C123.509 22.22 122.592 21.9633 121.771 21.45C120.949 20.922 120.297 20.2033 119.813 19.294C119.343 18.37 119.109 17.314 119.109 16.126C119.109 14.9233 119.343 13.8673 119.813 12.958C120.297 12.034 120.942 11.3153 121.749 10.802C122.555 10.274 123.45 10.01 124.433 10.01C125.063 10.01 125.643 10.1053 126.171 10.296C126.699 10.4867 127.153 10.7287 127.535 11.022C127.931 11.3153 128.231 11.616 128.437 11.924C128.657 12.2173 128.767 12.4667 128.767 12.672L127.975 12.958V11.352C127.975 10.9707 128.099 10.6553 128.349 10.406C128.598 10.142 128.913 10.01 129.295 10.01ZM124.851 19.8C125.496 19.8 126.061 19.6387 126.545 19.316C127.029 18.9933 127.403 18.5533 127.667 17.996C127.945 17.4387 128.085 16.8153 128.085 16.126C128.085 15.422 127.945 14.7913 127.667 14.234C127.403 13.6767 127.029 13.2367 126.545 12.914C126.061 12.5913 125.496 12.43 124.851 12.43C124.22 12.43 123.663 12.5913 123.179 12.914C122.695 13.2367 122.313 13.6767 122.035 14.234C121.771 14.7913 121.639 15.422 121.639 16.126C121.639 16.8153 121.771 17.4387 122.035 17.996C122.313 18.5533 122.695 18.9933 123.179 19.316C123.663 19.6387 124.22 19.8 124.851 19.8ZM138.709 10.01C139.545 10.01 140.271 10.098 140.887 10.274C141.518 10.45 142.002 10.6993 142.339 11.022C142.691 11.33 142.867 11.704 142.867 12.144C142.867 12.4373 142.779 12.716 142.603 12.98C142.427 13.2293 142.17 13.354 141.833 13.354C141.598 13.354 141.4 13.3247 141.239 13.266C141.092 13.1927 140.96 13.1047 140.843 13.002C140.726 12.8993 140.586 12.804 140.425 12.716C140.278 12.628 140.051 12.562 139.743 12.518C139.45 12.4593 139.23 12.43 139.083 12.43C138.335 12.43 137.697 12.5913 137.169 12.914C136.656 13.2367 136.26 13.6767 135.981 14.234C135.702 14.7767 135.563 15.4073 135.563 16.126C135.563 16.83 135.702 17.4607 135.981 18.018C136.274 18.5607 136.67 18.9933 137.169 19.316C137.682 19.6387 138.269 19.8 138.929 19.8C139.296 19.8 139.611 19.778 139.875 19.734C140.139 19.69 140.359 19.624 140.535 19.536C140.74 19.4187 140.924 19.294 141.085 19.162C141.246 19.03 141.488 18.964 141.811 18.964C142.192 18.964 142.486 19.0887 142.691 19.338C142.896 19.5727 142.999 19.866 142.999 20.218C142.999 20.5847 142.794 20.922 142.383 21.23C141.972 21.5233 141.43 21.7653 140.755 21.956C140.095 22.132 139.376 22.22 138.599 22.22C137.44 22.22 136.436 21.956 135.585 21.428C134.734 20.8853 134.074 20.152 133.605 19.228C133.15 18.304 132.923 17.27 132.923 16.126C132.923 14.9233 133.165 13.8673 133.649 12.958C134.148 12.034 134.83 11.3153 135.695 10.802C136.575 10.274 137.58 10.01 138.709 10.01ZM146.443 22C146.061 22 145.746 21.8753 145.497 21.626C145.247 21.362 145.123 21.0393 145.123 20.658V7.062C145.123 6.68067 145.247 6.36533 145.497 6.116C145.746 5.852 146.061 5.72 146.443 5.72C146.824 5.72 147.139 5.852 147.389 6.116C147.638 6.36533 147.763 6.68067 147.763 7.062V20.658C147.763 21.0393 147.638 21.362 147.389 21.626C147.139 21.8753 146.824 22 146.443 22ZM153.439 10.23C153.776 10.23 154.069 10.3693 154.319 10.648C154.568 10.9267 154.693 11.198 154.693 11.462C154.693 11.814 154.517 12.144 154.165 12.452L147.543 18.546L147.433 15.51L152.471 10.648C152.749 10.3693 153.072 10.23 153.439 10.23ZM153.769 21.978C153.387 21.978 153.065 21.8313 152.801 21.538L148.731 17.226L150.733 15.378L154.693 19.69C154.971 19.9833 155.111 20.3133 155.111 20.68C155.111 21.0613 154.957 21.3767 154.649 21.626C154.355 21.8607 154.062 21.978 153.769 21.978ZM167.4 22.22C166.564 22.22 165.787 22.0513 165.068 21.714C164.349 21.3767 163.763 20.8927 163.308 20.262C163.132 19.998 163.044 19.7413 163.044 19.492C163.044 19.1253 163.183 18.8173 163.462 18.568C163.755 18.3187 164.041 18.194 164.32 18.194C164.54 18.194 164.753 18.26 164.958 18.392C165.178 18.524 165.376 18.678 165.552 18.854C165.845 19.118 166.131 19.3087 166.41 19.426C166.703 19.5287 167.033 19.58 167.4 19.58C167.84 19.58 168.251 19.47 168.632 19.25C169.013 19.03 169.321 18.7367 169.556 18.37C169.791 18.0033 169.908 17.6073 169.908 17.182V7.942C169.908 7.56067 170.047 7.24533 170.326 6.996C170.605 6.732 170.927 6.6 171.294 6.6C171.705 6.6 172.035 6.732 172.284 6.996C172.533 7.24533 172.658 7.56067 172.658 7.942V17.182C172.658 18.0767 172.423 18.9053 171.954 19.668C171.485 20.4307 170.854 21.0467 170.062 21.516C169.27 21.9853 168.383 22.22 167.4 22.22ZM187.151 16.126C187.151 17.3287 186.879 18.392 186.337 19.316C185.809 20.2253 185.09 20.9367 184.181 21.45C183.286 21.9633 182.281 22.22 181.167 22.22C180.052 22.22 179.04 21.9633 178.131 21.45C177.236 20.9367 176.517 20.2253 175.975 19.316C175.447 18.392 175.183 17.3287 175.183 16.126C175.183 14.9233 175.447 13.8673 175.975 12.958C176.517 12.034 177.236 11.3153 178.131 10.802C179.04 10.274 180.052 10.01 181.167 10.01C182.281 10.01 183.286 10.274 184.181 10.802C185.09 11.3153 185.809 12.034 186.337 12.958C186.879 13.8673 187.151 14.9233 187.151 16.126ZM184.511 16.126C184.511 15.378 184.357 14.7327 184.049 14.19C183.755 13.6327 183.352 13.2 182.839 12.892C182.34 12.584 181.783 12.43 181.167 12.43C180.551 12.43 179.986 12.584 179.473 12.892C178.974 13.2 178.571 13.6327 178.263 14.19C177.969 14.7327 177.823 15.378 177.823 16.126C177.823 16.8593 177.969 17.5047 178.263 18.062C178.571 18.6047 178.974 19.03 179.473 19.338C179.986 19.646 180.551 19.8 181.167 19.8C181.783 19.8 182.34 19.646 182.839 19.338C183.352 19.03 183.755 18.6047 184.049 18.062C184.357 17.5047 184.511 16.8593 184.511 16.126ZM195.643 10.01C196.699 10.01 197.499 10.2373 198.041 10.692C198.599 11.1467 198.98 11.7553 199.185 12.518C199.391 13.266 199.493 14.102 199.493 15.026V20.658C199.493 21.0393 199.369 21.362 199.119 21.626C198.87 21.8753 198.555 22 198.173 22C197.792 22 197.477 21.8753 197.227 21.626C196.978 21.362 196.853 21.0393 196.853 20.658V15.026C196.853 14.542 196.795 14.1093 196.677 13.728C196.56 13.332 196.347 13.0167 196.039 12.782C195.731 12.5473 195.291 12.43 194.719 12.43C194.162 12.43 193.685 12.5473 193.289 12.782C192.893 13.0167 192.593 13.332 192.387 13.728C192.197 14.1093 192.101 14.542 192.101 15.026V20.658C192.101 21.0393 191.977 21.362 191.727 21.626C191.478 21.8753 191.163 22 190.781 22C190.4 22 190.085 21.8753 189.835 21.626C189.586 21.362 189.461 21.0393 189.461 20.658V7.062C189.461 6.68067 189.586 6.36533 189.835 6.116C190.085 5.852 190.4 5.72 190.781 5.72C191.163 5.72 191.478 5.852 191.727 6.116C191.977 6.36533 192.101 6.68067 192.101 7.062V12.518L191.771 12.452C191.903 12.2027 192.087 11.9387 192.321 11.66C192.556 11.3667 192.842 11.0953 193.179 10.846C193.517 10.5967 193.891 10.3987 194.301 10.252C194.712 10.0907 195.159 10.01 195.643 10.01ZM208.644 10.01C209.729 10.01 210.551 10.2373 211.108 10.692C211.68 11.1467 212.069 11.7553 212.274 12.518C212.494 13.266 212.604 14.102 212.604 15.026V20.658C212.604 21.0393 212.479 21.362 212.23 21.626C211.981 21.8753 211.665 22 211.284 22C210.903 22 210.587 21.8753 210.338 21.626C210.089 21.362 209.964 21.0393 209.964 20.658V15.026C209.964 14.542 209.898 14.1093 209.766 13.728C209.649 13.332 209.429 13.0167 209.106 12.782C208.783 12.5473 208.321 12.43 207.72 12.43C207.133 12.43 206.635 12.5473 206.224 12.782C205.828 13.0167 205.52 13.332 205.3 13.728C205.095 14.1093 204.992 14.542 204.992 15.026V20.658C204.992 21.0393 204.867 21.362 204.618 21.626C204.369 21.8753 204.053 22 203.672 22C203.291 22 202.975 21.8753 202.726 21.626C202.477 21.362 202.352 21.0393 202.352 20.658V11.572C202.352 11.1907 202.477 10.8753 202.726 10.626C202.975 10.362 203.291 10.23 203.672 10.23C204.053 10.23 204.369 10.362 204.618 10.626C204.867 10.8753 204.992 11.1907 204.992 11.572V12.518L204.662 12.452C204.794 12.2027 204.985 11.9387 205.234 11.66C205.483 11.3667 205.777 11.0953 206.114 10.846C206.451 10.5967 206.833 10.3987 207.258 10.252C207.683 10.0907 208.145 10.01 208.644 10.01ZM216.975 17.138C216.477 17.138 216.205 16.8593 216.161 16.302L215.523 8.206C215.494 7.75133 215.611 7.37 215.875 7.062C216.154 6.754 216.513 6.6 216.953 6.6C217.393 6.6 217.753 6.754 218.031 7.062C218.31 7.37 218.427 7.75133 218.383 8.206L217.767 16.302C217.723 16.8593 217.459 17.138 216.975 17.138ZM216.821 22C216.396 22 216.066 21.89 215.831 21.67C215.611 21.4353 215.501 21.1053 215.501 20.68V20.306C215.501 19.8807 215.611 19.558 215.831 19.338C216.066 19.1033 216.396 18.986 216.821 18.986H217.107C217.533 18.986 217.855 19.1033 218.075 19.338C218.31 19.558 218.427 19.8807 218.427 20.306V20.68C218.427 21.1053 218.31 21.4353 218.075 21.67C217.855 21.89 217.533 22 217.107 22H216.821Z" fill="#4FA56F"/>
</svg>
