<svg width="22" height="22" viewBox="0 0 22 22" fill="none" xmlns="http://www.w3.org/2000/svg">
<path d="M12.9906 19.25H6.41667C4.68818 19.25 3.82394 19.25 3.28697 18.713C2.75 18.1761 2.75 17.3118 2.75 15.5833V6.41667C2.75 4.68818 2.75 3.82394 3.28697 3.28697C3.82394 2.75 4.68818 2.75 6.41667 2.75H15.5833C17.3118 2.75 18.1761 2.75 18.713 3.28697C19.25 3.82394 19.25 4.68818 19.25 6.41667V12.9906C19.25 13.3653 19.25 13.5526 19.1802 13.7211C19.1104 13.8896 18.978 14.022 18.713 14.287L14.287 18.713C14.022 18.978 13.8896 19.1104 13.7211 19.1802C13.5526 19.25 13.3653 19.25 12.9906 19.25Z" stroke="#222222" stroke-width="1.5"/>
<path d="M12.8333 19.25V14.9722C12.8333 13.9639 12.8333 13.4598 13.1465 13.1466C13.4597 12.8333 13.9639 12.8333 14.9721 12.8333H19.2499" stroke="#222222" stroke-width="1.5"/>
</svg>
