<svg width="16" height="16" viewBox="0 0 16 16" fill="none" xmlns="http://www.w3.org/2000/svg">
<path d="M11.365 0.58667H4.03573C2.01285 0.58667 0.371094 2.22192 0.371094 4.23848V8.62357V9.35687C0.371094 11.3734 2.01285 13.0087 4.03573 13.0087H5.13512C5.33301 13.0087 5.59687 13.1407 5.72147 13.302L6.82086 14.7612C7.30459 15.4065 8.09615 15.4065 8.57988 14.7612L9.67927 13.302C9.81853 13.1187 10.0384 13.0087 10.2656 13.0087H11.365C13.3879 13.0087 15.0296 11.3734 15.0296 9.35687V4.23848C15.0296 2.22192 13.3879 0.58667 11.365 0.58667ZM4.76866 7.91961C4.35822 7.91961 4.03573 7.58963 4.03573 7.18632C4.03573 6.78301 4.36555 6.45302 4.76866 6.45302C5.17177 6.45302 5.50159 6.78301 5.50159 7.18632C5.50159 7.58963 5.1791 7.91961 4.76866 7.91961ZM7.70037 7.91961C7.28993 7.91961 6.96744 7.58963 6.96744 7.18632C6.96744 6.78301 7.29726 6.45302 7.70037 6.45302C8.10348 6.45302 8.4333 6.78301 8.4333 7.18632C8.4333 7.58963 8.11081 7.91961 7.70037 7.91961ZM10.6321 7.91961C10.2216 7.91961 9.89915 7.58963 9.89915 7.18632C9.89915 6.78301 10.229 6.45302 10.6321 6.45302C11.0352 6.45302 11.365 6.78301 11.365 7.18632C11.365 7.58963 11.0425 7.91961 10.6321 7.91961Z" fill="#23AA49"/>
</svg>
