<svg width="19" height="19" viewBox="0 0 19 19" fill="none" xmlns="http://www.w3.org/2000/svg">
    <g clip-path="url(#clip0_4075_7218)">
        <path
            d="M7.62154 3.2645C8.15147 3.14046 8.69403 3.07845 9.23829 3.07973C14.6275 3.07973 17.707 9.23878 17.707 9.23878C17.2397 10.1131 16.6823 10.9362 16.044 11.6947M10.8704 10.8709C10.659 11.0979 10.404 11.2799 10.1207 11.4061C9.83738 11.5323 9.53154 11.6002 9.22142 11.6057C8.9113 11.6112 8.60326 11.5541 8.31567 11.4379C8.02808 11.3218 7.76683 11.1489 7.54751 10.9296C7.32819 10.7102 7.15529 10.449 7.03913 10.1614C6.92297 9.87381 6.86592 9.56577 6.87139 9.25565C6.87686 8.94553 6.94474 8.6397 7.07098 8.35638C7.19721 8.07307 7.37922 7.81808 7.60614 7.60663M13.8114 13.8119C12.4953 14.815 10.8928 15.3708 9.23829 15.3978C3.84912 15.3978 0.769592 9.23878 0.769592 9.23878C1.72724 7.45412 3.05547 5.89489 4.66519 4.66569L13.8114 13.8119Z"
            stroke="#475569" stroke-width="1.38579" stroke-linecap="round"
            stroke-linejoin="round" />
        <path d="M0.769592 0.77002L17.707 17.7074" stroke="#475569" stroke-width="1.38579"
            stroke-linecap="round" stroke-linejoin="round" />
    </g>
    <defs>
        <clipPath id="clip0_4075_7218">
            <rect width="16.94" height="16.94" fill="white" />
        </clipPath>
    </defs>
</svg>
