<svg width="16" height="19" viewBox="0 0 16 19" fill="none" xmlns="http://www.w3.org/2000/svg">
<path d="M14.8983 6.03011C14.0044 1.87203 10.5735 0 7.5598 0C7.5598 0 7.5598 0 7.55129 0C4.54609 0 1.10671 1.86303 0.212814 6.02111C-0.783243 10.6652 1.90696 14.5983 4.34177 17.0733C5.24418 17.9913 6.40199 18.4503 7.5598 18.4503C8.71761 18.4503 9.87542 17.9913 10.7693 17.0733C13.2041 14.5983 15.8943 10.6742 14.8983 6.03011ZM7.5598 10.5392C6.07848 10.5392 4.87811 9.27017 4.87811 7.70414C4.87811 6.13811 6.07848 4.86909 7.5598 4.86909C9.04111 4.86909 10.2415 6.13811 10.2415 7.70414C10.2415 9.27017 9.04111 10.5392 7.5598 10.5392Z" fill="#23AA49"/>
</svg>
