<svg width="15" height="16" viewBox="0 0 15 16" fill="none" xmlns="http://www.w3.org/2000/svg">
<path d="M6.87584 10.0923L5.51789 11.4502C5.23162 11.7365 4.77653 11.7365 4.48292 11.4576C4.40217 11.3768 4.32143 11.3034 4.24069 11.2227C3.48464 10.4593 2.802 9.65922 2.19276 8.82243C1.59086 7.98564 1.1064 7.14885 0.754068 6.31941C0.409076 5.48262 0.23291 4.68253 0.23291 3.91914C0.23291 3.42001 0.320993 2.94289 0.497159 2.50248C0.673325 2.05472 0.952255 1.64367 1.34129 1.27665C1.81106 0.814218 2.32488 0.58667 2.86806 0.58667C3.07359 0.58667 3.27911 0.630711 3.46262 0.718794C3.65347 0.806877 3.82229 0.939002 3.95442 1.12985L5.65736 3.53011C5.78948 3.71362 5.8849 3.88244 5.95097 4.04393C6.01703 4.19807 6.05373 4.35222 6.05373 4.49168C6.05373 4.66785 6.00235 4.84402 5.89958 5.01284C5.80416 5.18167 5.6647 5.35783 5.48853 5.534L4.93067 6.11388C4.84993 6.19462 4.81323 6.29004 4.81323 6.40749C4.81323 6.46621 4.82057 6.51759 4.83525 6.57631C4.85727 6.63504 4.87929 6.67908 4.89397 6.72312C5.02609 6.96535 5.25364 7.28098 5.57661 7.66267C5.90692 8.04436 6.25926 8.4334 6.64095 8.82243C6.71435 8.89583 6.79509 8.96924 6.8685 9.04264C7.16211 9.32891 7.16945 9.79868 6.87584 10.0923Z" fill="#23AA49"/>
<path d="M14.8914 12.5733C14.8914 12.7788 14.8547 12.9917 14.7813 13.1972C14.7593 13.2559 14.7373 13.3146 14.7079 13.3734C14.5831 13.6376 14.4216 13.8872 14.2088 14.1221C13.8491 14.5185 13.4527 14.8047 13.005 14.9882C12.9976 14.9882 12.9903 14.9956 12.9829 14.9956C12.5499 15.1717 12.0801 15.2672 11.5736 15.2672C10.8249 15.2672 10.0248 15.091 9.1807 14.7313C8.33657 14.3716 7.49244 13.8872 6.65565 13.2779C6.36938 13.0651 6.08311 12.8522 5.81152 12.6247L8.21179 10.2244C8.41731 10.3785 8.60082 10.496 8.75496 10.5767C8.79166 10.5914 8.83571 10.6134 8.88709 10.6355C8.94581 10.6575 9.00453 10.6648 9.07059 10.6648C9.19538 10.6648 9.2908 10.6208 9.37154 10.54L9.9294 9.98952C10.1129 9.80601 10.2891 9.66654 10.4579 9.57846C10.6267 9.4757 10.7956 9.42432 10.9791 9.42432C11.1185 9.42432 11.2653 9.45368 11.4268 9.51974C11.5883 9.5858 11.7571 9.68123 11.9406 9.80601L14.3703 11.531C14.5611 11.6631 14.6932 11.8172 14.774 12.0007C14.8474 12.1843 14.8914 12.3678 14.8914 12.5733Z" fill="#23AA49"/>
</svg>
