<svg width="15" height="16" viewBox="0 0 15 16" fill="none" xmlns="http://www.w3.org/2000/svg">
<path d="M7.3593 0.772461C3.32087 0.772461 0.0300293 4.06331 0.0300293 8.10174C0.0300293 12.1402 3.32087 15.431 7.3593 15.431C11.3977 15.431 14.6886 12.1402 14.6886 8.10174C14.6886 4.06331 11.3977 0.772461 7.3593 0.772461ZM10.5475 10.7183C10.4449 10.8942 10.2617 10.9895 10.0711 10.9895C9.97586 10.9895 9.88058 10.9675 9.79262 10.9088L7.52055 9.55293C6.95619 9.21579 6.53843 8.47553 6.53843 7.82322V4.81822C6.53843 4.51772 6.78762 4.26853 7.08812 4.26853C7.38862 4.26853 7.63782 4.51772 7.63782 4.81822V7.82322C7.63782 8.08708 7.8577 8.47553 8.0849 8.60746L10.357 9.96337C10.6208 10.1173 10.7088 10.4544 10.5475 10.7183Z" fill="#23AA49"/>
</svg>
