<svg width="24" height="24" viewBox="0 0 24 24" fill="none" xmlns="http://www.w3.org/2000/svg">
<path d="M12.398 17.804L12.7434 18.4697H12.7434L12.398 17.804ZM11.602 17.804L11.2566 18.4697H11.2566L11.602 17.804ZM18.25 9C18.25 11.2364 17.111 13.0661 15.7225 14.4666C14.3347 15.8664 12.7605 16.7711 12.0527 17.1382L12.7434 18.4697C13.5185 18.0677 15.2453 17.0785 16.7877 15.5227C18.3295 13.9676 19.75 11.78 19.75 9H18.25ZM12 2.75C15.4518 2.75 18.25 5.54822 18.25 9H19.75C19.75 4.71979 16.2802 1.25 12 1.25V2.75ZM5.75 9C5.75 5.54822 8.54822 2.75 12 2.75V1.25C7.71979 1.25 4.25 4.71979 4.25 9H5.75ZM11.9473 17.1382C11.2395 16.7711 9.66527 15.8664 8.27749 14.4666C6.88902 13.0661 5.75 11.2364 5.75 9H4.25C4.25 11.78 5.67049 13.9676 7.21227 15.5227C8.75474 17.0785 10.4815 18.0677 11.2566 18.4697L11.9473 17.1382ZM12.0527 17.1382C12.0164 17.157 11.9836 17.157 11.9473 17.1382L11.2566 18.4697C11.726 18.7132 12.274 18.7132 12.7434 18.4697L12.0527 17.1382ZM14.25 9C14.25 10.2426 13.2426 11.25 12 11.25V12.75C14.0711 12.75 15.75 11.0711 15.75 9H14.25ZM12 6.75C13.2426 6.75 14.25 7.75736 14.25 9H15.75C15.75 6.92893 14.0711 5.25 12 5.25V6.75ZM9.75 9C9.75 7.75736 10.7574 6.75 12 6.75V5.25C9.92893 5.25 8.25 6.92893 8.25 9H9.75ZM12 11.25C10.7574 11.25 9.75 10.2426 9.75 9H8.25C8.25 11.0711 9.92893 12.75 12 12.75V11.25Z" fill="#222222"/>
<path d="M19.7942 17.5C20.5841 17.9561 21 18.4734 21 19C21 19.5266 20.5841 20.0439 19.7942 20.5C19.0043 20.9561 17.8682 21.3348 16.5 21.5981C15.1318 21.8614 13.5798 22 12 22C10.4202 22 8.86817 21.8614 7.5 21.5981C6.13183 21.3348 4.99569 20.9561 4.20577 20.5C3.41586 20.0439 3 19.5266 3 19C3 18.4734 3.41586 17.9561 4.20577 17.5" stroke="#222222" stroke-width="1.5" stroke-linecap="round"/>
</svg>
