<svg width="30" height="30" viewBox="0 0 30 30" fill="none" xmlns="http://www.w3.org/2000/svg">
<path d="M11.25 13.75V7.5C11.25 6.50544 11.6451 5.55161 12.3483 4.84835C13.0516 4.14509 14.0054 3.75 15 3.75C15.9946 3.75 16.9484 4.14509 17.6516 4.84835C18.3549 5.55161 18.75 6.50544 18.75 7.5V13.75M7.91375 10H22.0875C22.448 9.99996 22.8042 10.0779 23.1317 10.2284C23.4592 10.3789 23.7503 10.5984 23.9851 10.872C24.2198 11.1456 24.3926 11.4666 24.4916 11.8132C24.5906 12.1598 24.6135 12.5237 24.5588 12.88L22.99 23.07C22.8538 23.9556 22.4051 24.7631 21.725 25.3464C21.0449 25.9297 20.1785 26.2503 19.2825 26.25H10.7175C9.82175 26.25 8.9556 25.9293 8.27579 25.346C7.59597 24.7627 7.14741 23.9553 7.01125 23.07L5.4425 12.88C5.38771 12.5237 5.41061 12.1598 5.50963 11.8132C5.60865 11.4666 5.78145 11.1456 6.01618 10.872C6.25091 10.5984 6.54202 10.3789 6.86955 10.2284C7.19709 10.0779 7.55329 9.99996 7.91375 10Z" stroke="#2B2921" stroke-width="2" stroke-linecap="round" stroke-linejoin="round"/>
</svg>
