<svg width="10" height="10" viewBox="0 0 10 10" fill="none" xmlns="http://www.w3.org/2000/svg">
<path d="M5.50612 8.82647C5.21492 8.67341 4.86706 8.67337 4.57582 8.82636L3.1022 9.60048C2.36837 9.98597 1.51108 9.36257 1.65163 8.54565L1.93372 6.90594C1.9896 6.58112 1.88184 6.24962 1.64564 6.01975L0.453698 4.85975C-0.140573 4.2814 0.18679 3.27266 1.00743 3.15348L2.64913 2.91508C2.97683 2.86749 3.25973 2.66076 3.40462 2.36299L4.1418 0.847982C4.50671 0.0980319 5.57529 0.0980315 5.9402 0.847982L6.67738 2.36299C6.82227 2.66076 7.10517 2.86749 7.43287 2.91508L9.07543 3.15361C9.89591 3.27276 10.2234 4.28119 9.62941 4.85963L8.4359 6.02195C8.19996 6.25172 8.09229 6.58293 8.148 6.90752L8.42922 8.54593C8.56943 9.36283 7.71206 9.9859 6.97838 9.60028L5.50612 8.82647Z" fill="#FFBC00"/>
</svg>
